<svg width="644" height="156" viewBox="0 0 644 156" fill="none" xmlns="http://www.w3.org/2000/svg">
<path d="M357.886 61.8706L357.793 61.8479L357.698 61.8615C356.971 61.9657 356.244 62.3843 355.522 63.0299C354.871 63.5803 354.29 64.2522 353.776 65.0403C353.245 65.7508 352.848 66.4938 352.59 67.2692L352.585 67.2832L352.581 67.2974C352.405 67.9547 352.388 68.6762 352.946 69.0943L353.019 69.1487L353.106 69.1741C353.787 69.3733 354.373 70.1568 354.635 71.9864C354.898 73.8213 354.588 75.619 353.691 77.3923L353.687 77.4L353.683 77.4078C352.859 79.1854 351.669 80.7264 350.107 82.0332L350.041 82.0886L349.997 82.1629C349.844 82.4235 349.728 82.681 349.673 82.9295C349.618 83.1802 349.619 83.4547 349.746 83.7087C349.855 83.9263 350.028 84.1005 350.262 84.1991C350.486 84.2931 350.726 84.3016 350.952 84.2691L351.084 84.2502L351.19 84.1679C354.338 81.7029 356.785 78.8509 358.521 75.6108C360.271 72.4511 360.965 69.4035 360.546 66.4841C360.393 65.4176 360.074 64.453 359.582 63.5974C359.336 63.1386 359.082 62.757 358.814 62.4687C358.547 62.1813 358.24 61.9564 357.886 61.8706Z" fill="white" stroke="white"/>
<path d="M343.113 49.685L343.155 49.629L343.18 49.5635C343.505 48.7121 343.794 47.6567 344.049 46.4041C344.395 45.113 344.509 43.9546 344.364 42.9418C344.21 41.8702 343.258 41.2359 341.959 40.8853C340.693 40.509 339.1 40.4757 337.208 40.7468C333.521 41.2752 330.756 42.4567 329.006 44.3595C327.258 46.1629 326.53 48.2624 326.868 50.6216C327.097 52.2184 327.669 53.6793 328.583 54.9981L328.59 55.0082L328.598 55.0178C329.556 56.2667 330.557 57.5092 331.601 58.7454L331.605 58.751L331.61 58.7565C332.619 59.8833 333.558 61.1062 334.427 62.4255L334.437 62.4407L334.448 62.4551C335.348 63.6271 335.907 64.9698 336.125 66.4928C336.361 68.1339 335.98 69.6121 334.973 70.9558C334.062 72.1716 332.596 72.9589 330.489 73.2609C328.99 73.4757 327.748 73.2155 326.723 72.5184C325.682 71.7353 325.061 70.665 324.862 69.2709C324.733 68.3751 324.767 67.7281 324.913 67.2912L324.917 67.2773L324.921 67.2631C325.071 66.7036 325.342 66.1569 325.743 65.6226L325.772 65.5829L325.794 65.5383C325.904 65.3075 325.944 65.0444 325.859 64.7777C325.784 64.5389 325.625 64.3531 325.444 64.2098C325.293 64.0527 325.084 63.9152 324.817 63.9005C324.53 63.8847 324.293 64.0182 324.121 64.1723L324.115 64.1777L324.11 64.1832C323.536 64.731 323.036 65.4015 322.605 66.1878C322.189 66.9479 321.815 67.7029 321.483 68.4529C321.15 69.2073 320.893 69.9137 320.717 70.5711C320.543 71.2157 320.461 71.7789 320.524 72.2201C320.721 73.5919 321.89 74.5905 323.676 75.3089L323.676 75.309L323.686 75.3129C325.617 76.0407 328.057 76.1713 330.975 75.7531C335.013 75.1745 338.207 73.8401 340.51 71.7112C342.841 69.5562 343.782 66.8503 343.323 63.6509C343.059 61.8068 342.427 60.2168 341.416 58.8979C340.439 57.5563 339.394 56.3514 338.278 55.2845C337.263 54.1511 336.296 53.0534 335.376 51.9914C334.571 50.8878 334.084 49.7086 333.903 48.4496C333.685 46.9294 333.929 45.7915 334.549 44.9643C335.258 44.0184 336.249 43.4461 337.568 43.2572C338.537 43.1182 339.274 43.3468 339.847 43.8993L339.859 43.9106L339.871 43.9212C340.548 44.4929 340.975 45.297 341.131 46.3793C341.284 47.4511 341.269 48.2355 341.126 48.7672L341.099 48.8663L341.114 48.9679C341.183 49.4499 341.435 49.8404 341.882 50.0538L341.943 50.0827L342.008 50.0947C342.206 50.1306 342.415 50.1273 342.617 50.0558C342.823 49.9831 342.988 49.8516 343.113 49.685Z" fill="white" stroke="white"/>
<path d="M316.603 67.5459L316.499 67.6175L316.442 67.7294C315.672 69.2367 314.542 70.556 313.041 71.6862C311.538 72.817 310.035 73.4768 308.529 73.6927C306.416 73.9956 304.894 73.6344 303.86 72.7279C302.798 71.7962 302.083 70.3086 301.779 68.1826L301.778 68.1772L301.777 68.1717L301.776 68.1663L301.776 68.1608L301.775 68.1554L301.774 68.15L301.773 68.1445L301.773 68.1391L301.772 68.1336L301.771 68.1282L301.77 68.1228L301.769 68.1173L301.769 68.1119L301.768 68.1065L301.767 68.101L301.766 68.0956L301.766 68.0902L301.765 68.0848L301.764 68.0793L301.763 68.0739L301.762 68.0685L301.762 68.0631L301.761 68.0576L301.76 68.0522L301.759 68.0468L301.759 68.0414L301.758 68.036L301.757 68.0305L301.756 68.0251L301.755 68.0197L301.755 68.0143L301.754 68.0089L301.753 68.0035L301.752 67.9981L301.752 67.9926L301.751 67.9872L301.75 67.9818L301.749 67.9764L301.748 67.971L301.748 67.9656L301.747 67.9602L301.746 67.9548L301.745 67.9494L301.745 67.944L301.744 67.9386L301.743 67.9332L301.742 67.9278L301.741 67.9224L301.741 67.917L301.74 67.9116L301.739 67.9062L301.738 67.9008L301.738 67.8954L301.737 67.89L301.736 67.8846L301.735 67.8792L301.735 67.8738L301.734 67.8685L301.733 67.8631L301.732 67.8577L301.731 67.8523L301.731 67.8469L301.73 67.8415L301.729 67.8361L301.728 67.8308L301.728 67.8254L301.727 67.82L301.726 67.8146L301.725 67.8092L301.724 67.8039L301.724 67.7985L301.723 67.7931L301.722 67.7877L301.721 67.7824L301.721 67.777L301.72 67.7716L301.719 67.7663L301.718 67.7609L301.718 67.7555L301.717 67.7501L301.716 67.7448L301.715 67.7394L301.714 67.7341L301.714 67.7287L301.713 67.7233L301.712 67.718L301.711 67.7126L301.711 67.7072L301.71 67.7019L301.709 67.6965L301.708 67.6912L301.708 67.6858L301.707 67.6805L301.706 67.6751L301.705 67.6698L301.705 67.6644L301.704 67.659L301.703 67.6537L301.702 67.6483L301.701 67.643L301.701 67.6377L301.7 67.6323L301.699 67.627L301.698 67.6216L301.698 67.6163L301.697 67.6109L301.696 67.6056L301.695 67.6002L301.695 67.5949L301.694 67.5896L301.693 67.5842L301.692 67.5789L301.691 67.5736L301.691 67.5682L301.69 67.5629L301.689 67.5576L301.688 67.5522L301.688 67.5469L301.687 67.5416L301.686 67.5362L301.685 67.5309L301.685 67.5256L301.684 67.5203L301.683 67.5149L301.682 67.5096L301.682 67.5043L301.681 67.499L301.68 67.4936L301.679 67.4883L301.679 67.483L301.678 67.4777L301.677 67.4724L301.676 67.4671L301.675 67.4617L301.675 67.4564L301.674 67.4511L301.673 67.4458L301.672 67.4405L301.672 67.4352L301.671 67.4299L301.67 67.4246L301.669 67.4192L301.669 67.4139L301.668 67.4086L301.667 67.4033L301.666 67.398L301.666 67.3927L301.665 67.3874L301.664 67.3821L301.663 67.3768L301.663 67.3715L301.662 67.3662L301.661 67.3609L301.66 67.3556L301.659 67.3503L301.659 67.345L301.658 67.3398L301.657 67.3345L301.656 67.3292L301.656 67.3239L301.655 67.3186L301.654 67.3133L301.653 67.308L301.653 67.3027L301.652 67.2974L301.651 67.2922L301.65 67.2869L301.65 67.2816L301.649 67.2763L301.648 67.271L301.647 67.2658L301.647 67.2605L301.646 67.2552L301.645 67.2499L301.644 67.2446L301.644 67.2394L301.643 67.2341L301.642 67.2288L301.641 67.2236L301.641 67.2183L301.64 67.213L301.639 67.2077L301.638 67.2025L301.638 67.1972L301.637 67.1919L301.636 67.1867L301.635 67.1814L301.635 67.1761L301.634 67.1709L301.633 67.1656L301.632 67.1604L301.632 67.1551L301.631 67.1498L301.63 67.1446L301.629 67.1393L301.629 67.1341L301.628 67.1288L301.627 67.1236L301.626 67.1183L301.625 67.1131L301.625 67.1078L301.624 67.1026L301.623 67.0973L301.622 67.0921L301.622 67.0868L301.621 67.0816L301.62 67.0763L301.619 67.0711L301.619 67.0658L301.618 67.0606L301.617 67.0554L301.616 67.0501L301.616 67.0449L301.615 67.0396L301.614 67.0344L301.613 67.0292L301.613 67.0239L301.612 67.0187L301.611 67.0135L301.61 67.0082L301.61 67.003L301.609 66.9978L301.608 66.9925L301.607 66.9873L301.607 66.9821L301.606 66.9769L301.605 66.9716L301.604 66.9664L301.604 66.9612L301.603 66.956L301.602 66.9507L301.601 66.9455L301.601 66.9403L301.6 66.9351L301.599 66.9299L301.598 66.9247L301.598 66.9194L301.597 66.9142L301.596 66.909L301.596 66.9038L301.595 66.8986L301.594 66.8934L301.593 66.8882L301.593 66.883L301.592 66.8777L301.591 66.8725L301.59 66.8673L301.59 66.8621L301.589 66.8569L301.588 66.8517L301.587 66.8465L301.587 66.8413L301.586 66.8361L301.585 66.8309L301.584 66.8257L301.584 66.8205L301.583 66.8153L301.582 66.8101L301.581 66.8049L301.581 66.7997L301.58 66.7946L301.579 66.7894L301.578 66.7842L301.578 66.779L301.577 66.7738L301.576 66.7686L301.575 66.7634L301.575 66.7582L301.574 66.753L301.573 66.7479L301.572 66.7427L301.572 66.7375L301.571 66.7323L301.57 66.7271L301.569 66.722L301.569 66.7168L301.568 66.7116L301.567 66.7064L301.566 66.7013L301.566 66.6961L301.565 66.6909L301.564 66.6857L301.564 66.6806L301.563 66.6754L301.562 66.6702L301.561 66.6651L301.561 66.6599L301.56 66.6547L301.559 66.6496L301.558 66.6444L301.558 66.6392L301.557 66.6341L301.556 66.6289L301.555 66.6237L301.555 66.6186L301.554 66.6134L301.553 66.6083L301.552 66.6031L301.552 66.598L301.551 66.5928L301.55 66.5876L301.549 66.5825L301.549 66.5773L301.548 66.5722L301.547 66.567L301.546 66.5619L301.546 66.5567L301.545 66.5516L301.544 66.5464L301.544 66.5413L301.543 66.5362L301.542 66.531L301.541 66.5259L301.541 66.5207L301.54 66.5156L301.539 66.5105L301.538 66.5053L301.538 66.5002L301.537 66.495L301.536 66.4899L301.535 66.4848L301.535 66.4796L301.534 66.4745L301.533 66.4694L301.533 66.4642L301.532 66.4591L301.531 66.454L301.53 66.4489L301.53 66.4437L301.529 66.4386L301.528 66.4335L301.527 66.4284L301.527 66.4232L301.526 66.4181L301.525 66.413L301.524 66.4079L301.524 66.4027L301.523 66.3976L301.522 66.3925L301.521 66.3874L301.521 66.3823L301.52 66.3772L301.519 66.3721L301.519 66.3669L301.518 66.3618L301.517 66.3567L301.516 66.3516L301.516 66.3465L301.515 66.3414L301.514 66.3363L301.513 66.3312L301.513 66.3261L301.512 66.321L301.511 66.3159L301.511 66.3108L301.51 66.3057L301.509 66.3006L301.508 66.2955L301.508 66.2904L301.507 66.2853L301.506 66.2802L301.505 66.2751L301.505 66.27L301.504 66.2649L301.503 66.2598L301.502 66.2547L301.502 66.2496L301.501 66.2445L301.5 66.2394L301.5 66.2344L301.499 66.2293L301.498 66.2242L301.497 66.2191L301.497 66.214L301.496 66.2089L301.495 66.2039L301.494 66.1988L301.494 66.1937L301.493 66.1886L301.492 66.1835L301.492 66.1785L301.491 66.1734L301.49 66.1683L301.489 66.1632L301.489 66.1582L301.488 66.1531L301.487 66.148L301.486 66.143L301.486 66.1379L301.485 66.1328L301.484 66.1278L301.484 66.1227L301.483 66.1176L301.482 66.1126L301.481 66.1075L301.481 66.1024L301.48 66.0974L301.479 66.0923L301.478 66.0873L301.478 66.0822L301.477 66.0771L301.476 66.0721L301.476 66.067L301.475 66.062L301.474 66.0569L301.473 66.0519L301.473 66.0468L301.472 66.0418L301.471 66.0367L301.471 66.0317L301.47 66.0266L301.469 66.0216L301.468 66.0165L301.468 66.0115L301.467 66.0064L301.466 66.0014L301.465 65.9964L301.465 65.9913L301.464 65.9863L301.463 65.9812L301.463 65.9762L301.462 65.9712L301.461 65.9661L301.46 65.9611L301.46 65.9561L301.459 65.951L301.458 65.946L301.458 65.941L301.457 65.9359L301.456 65.9309L301.455 65.9259L301.455 65.9208L301.454 65.9158L301.453 65.9108L301.452 65.9058L301.452 65.9007L301.451 65.8957L301.45 65.8907L301.45 65.8857L301.449 65.8807L301.448 65.8756L301.447 65.8706L301.447 65.8656L301.446 65.8606L301.445 65.8556L301.445 65.8506L301.444 65.8456L301.443 65.8405L301.442 65.8355L301.442 65.8305L301.441 65.8255L301.44 65.8205L301.44 65.8155L301.439 65.8105L301.438 65.8055L301.437 65.8005L301.437 65.7955L301.436 65.7905L301.435 65.7855L301.435 65.7805L301.434 65.7755L301.433 65.7705L301.432 65.7655L301.432 65.7605L301.431 65.7555L301.43 65.7505L301.429 65.7455L301.429 65.7405L301.428 65.7355L301.427 65.7305L301.427 65.7255L301.426 65.7205L301.425 65.7156L301.424 65.7106L301.424 65.7056L301.423 65.7006L301.422 65.6956L301.422 65.6906L301.421 65.6857L301.42 65.6807L301.419 65.6757L301.419 65.6707L301.418 65.6657L301.417 65.6608L301.417 65.6558L301.416 65.6508L301.415 65.6458L301.414 65.6409L301.414 65.6359L301.413 65.6309L301.412 65.6259L301.412 65.621L301.411 65.616L301.41 65.611L301.41 65.6061L301.409 65.6011L301.408 65.5961L301.407 65.5912L301.407 65.5862L301.406 65.5813L301.405 65.5763L301.405 65.5713L301.404 65.5664L301.403 65.5614L301.402 65.5565L301.402 65.5515L301.401 65.5466L301.401 65.5465L301.309 63.3931C307.388 61.6168 311.927 59.6817 314.887 57.5718C317.909 55.4184 319.387 53.0019 319.004 50.3263C318.75 48.5564 317.729 47.1105 316.025 45.9884C314.355 44.7433 312.306 44.3157 309.928 44.6566C307.532 45 305.272 46.1401 303.151 48.0389C301.113 49.8324 299.366 52.0645 297.907 54.7278L297.907 54.7278L297.901 54.7381C296.531 57.3846 295.498 60.2425 294.803 63.3101C294.092 66.3064 293.925 69.151 294.31 71.8392C294.708 74.6158 295.68 76.7608 297.279 78.2025L297.29 78.2126L297.302 78.222C299.011 79.5853 301.43 79.9875 304.455 79.5539C307.501 79.1174 310.222 77.9267 312.609 75.9859L312.609 75.9859L312.612 75.9829C315.043 73.9679 316.966 71.7126 318.373 69.2156L318.425 69.1249L318.435 69.0213C318.482 68.5638 318.375 68.1368 318.077 67.7911C317.925 67.5809 317.708 67.3919 317.411 67.338C317.102 67.2819 316.823 67.3933 316.603 67.5459ZM309.825 50.2806L309.834 50.2885L309.843 50.2961C310.619 50.9434 311.097 51.8275 311.263 52.9874C311.472 54.4443 310.836 55.8595 309.149 57.251C307.536 58.4926 304.933 59.606 301.291 60.5673C301.315 57.0521 301.841 54.4456 302.817 52.6951C303.928 50.7352 305.364 49.6829 307.121 49.4311C308.152 49.2833 309.041 49.56 309.825 50.2806Z" fill="white" stroke="white"/>
<path d="M282.207 52.2902C281.07 54.0095 280.069 56.0946 279.201 58.5399C279.208 58.2882 279.213 58.0376 279.217 57.7883C279.24 56.1278 279.161 54.6467 278.974 53.3478C278.798 52.113 278.39 51.1313 277.68 50.5016C276.911 49.7434 275.74 49.5563 274.334 49.7578C273.25 49.9132 272.204 50.2939 271.199 50.8925L271.192 50.8966L271.186 50.9008C270.286 51.4759 269.411 52.1789 268.558 53.007C267.778 53.7393 267.054 54.551 266.387 55.4412C265.795 56.2304 265.288 57.0107 264.865 57.7823L264.843 57.8219L264.829 57.8647C264.745 58.1166 264.719 58.3861 264.797 58.6515C264.875 58.9197 265.044 59.1314 265.257 59.2915L265.322 59.3401L265.399 59.3658C265.663 59.4537 265.938 59.4702 266.209 59.3961C266.477 59.3229 266.709 59.1706 266.906 58.9728L266.964 58.9154L267 58.8428C267.586 57.6693 268.235 56.71 268.943 55.9557L268.943 55.9557L268.947 55.9517C269.722 55.1082 270.456 54.6858 271.147 54.5868C271.409 54.5493 271.523 54.5993 271.573 54.6364C271.623 54.6736 271.703 54.7695 271.74 55.0311L271.745 55.062L271.753 55.092C271.917 55.692 272.013 56.6167 272.026 57.8934C272.015 59.6063 271.944 61.5014 271.813 63.5792C271.669 65.5712 271.454 67.6606 271.167 69.8475C270.88 72.0318 270.509 74.2284 270.054 76.4376L270.053 76.4375L270.051 76.4493C269.668 78.5612 269.226 80.551 268.724 82.4192L268.724 82.4191L268.722 82.424C268.578 82.9829 268.536 83.5642 268.832 83.9922C269.161 84.4671 269.732 84.5304 270.256 84.4554C270.788 84.379 271.395 84.2469 272.072 84.0618L272.101 84.0539L272.129 84.0425C272.785 83.7748 273.4 83.5129 273.972 83.2567L273.991 83.2485L274.008 83.2388C274.659 82.8823 275.23 82.5351 275.718 82.1968L275.744 82.1791L275.767 82.1583C276.278 81.7008 276.616 81.1698 276.655 80.5637C277.602 72.7824 278.967 66.781 280.737 62.5359C282.58 58.1907 284.888 55.9794 287.584 55.5931C288.453 55.4685 289.001 55.5935 289.331 55.8412L289.35 55.8548L289.369 55.8667C289.826 56.1487 290.053 56.4973 290.114 56.9235C290.164 57.27 290.381 57.5323 290.636 57.7232L290.701 57.7719L290.778 57.7975C291.108 57.9075 291.441 57.8598 291.727 57.6614L291.813 57.6019L291.868 57.5128C292.257 56.882 292.644 55.8243 293.042 54.3907C293.529 52.9235 293.737 51.6922 293.6 50.7345C293.447 49.6683 292.923 48.8269 292.037 48.2508C291.14 47.6676 289.99 47.514 288.652 47.7058C286.107 48.0705 283.962 49.6367 282.207 52.2902Z" fill="white" stroke="white"/>
<path d="M255.357 56.1384C254.22 57.8577 253.219 59.9428 252.35 62.3881C252.357 62.1363 252.363 61.8858 252.366 61.6365C252.39 59.976 252.31 58.4949 252.124 57.196C251.947 55.9612 251.539 54.9795 250.829 54.3498C250.06 53.5916 248.89 53.4045 247.484 53.606C246.399 53.7614 245.354 54.1421 244.349 54.7407L244.342 54.7447L244.335 54.749C243.436 55.3241 242.56 56.027 241.708 56.8552C240.927 57.5875 240.203 58.3992 239.536 59.2894C238.945 60.0786 238.437 60.8589 238.014 61.6305L237.993 61.6701L237.978 61.7129C237.895 61.9648 237.868 62.2343 237.946 62.4997C238.024 62.7679 238.193 62.9796 238.407 63.1397L238.472 63.1883L238.549 63.214C238.813 63.3018 239.087 63.3184 239.359 63.2443C239.627 63.1711 239.858 63.0188 240.056 62.821L240.113 62.7636L240.149 62.691C240.735 61.5175 241.385 60.5582 242.093 59.8039L242.093 59.8039L242.096 59.7999C242.871 58.9564 243.606 58.534 244.296 58.435C244.558 58.3975 244.673 58.4475 244.722 58.4846C244.772 58.5218 244.852 58.6177 244.889 58.8793L244.894 58.9101L244.902 58.9402C245.066 59.5402 245.163 60.4649 245.175 61.7416C245.164 63.4545 245.093 65.3496 244.962 67.4274C244.819 69.4194 244.604 71.5088 244.316 73.6957C244.029 75.8799 243.658 78.0766 243.203 80.2858L243.203 80.2857L243.201 80.2975C242.818 82.4094 242.375 84.3992 241.873 86.2673L241.873 86.2673L241.872 86.2722C241.727 86.8311 241.685 87.4124 241.982 87.8404C242.311 88.3153 242.882 88.3786 243.405 88.3036C243.938 88.2272 244.544 88.0951 245.221 87.91L245.251 87.9021L245.279 87.8907C245.935 87.623 246.549 87.3611 247.122 87.1049L247.14 87.0967L247.158 87.087C247.809 86.7305 248.379 86.3833 248.867 86.045L248.893 86.0273L248.916 86.0065C249.427 85.549 249.765 85.018 249.804 84.4119C250.752 76.6306 252.117 70.6291 253.886 66.3841C255.729 62.0389 258.037 59.8276 260.733 59.4412C261.602 59.3167 262.15 59.4417 262.481 59.6894L262.499 59.703L262.518 59.7149C262.976 59.9969 263.203 60.3455 263.264 60.7717C263.313 61.1182 263.53 61.3805 263.785 61.5714L263.85 61.6201L263.927 61.6457C264.257 61.7557 264.59 61.7079 264.876 61.5096L264.962 61.45L265.017 61.361C265.406 60.7302 265.794 59.6725 266.191 58.2389C266.678 56.7717 266.886 55.5404 266.749 54.5827C266.596 53.5164 266.072 52.6751 265.186 52.099C264.289 51.5158 263.139 51.3622 261.801 51.554C259.256 51.9187 257.112 53.4849 255.357 56.1384Z" fill="white" stroke="white"/>
<path d="M224.395 89.1574L224.401 89.153L224.406 89.1485C226.468 87.5297 228.289 85.5081 229.871 83.0896C231.527 80.5727 232.795 77.8064 233.676 74.7931C234.637 71.6553 234.875 68.402 234.393 65.0387C234.039 62.5647 232.972 60.4922 231.194 58.8433C229.363 57.1438 226.872 56.56 223.813 56.9983C221.255 57.365 218.909 58.5134 216.782 60.4184C214.677 62.3035 212.889 64.5373 211.417 67.1164L211.417 67.1163L211.411 67.1267C210.028 69.6875 208.977 72.4185 208.256 75.3186L208.256 75.3185L208.253 75.3318C207.616 78.2284 207.473 80.9385 207.834 83.457C208.234 86.2516 209.316 88.4996 211.105 90.1593L211.114 90.1682L211.124 90.1766C213.023 91.7617 215.495 92.3036 218.468 91.8775C220.35 91.6078 222.327 90.6851 224.395 89.1574ZM226.558 81.7864L226.556 81.7896C225.222 84.6352 223.342 86.1602 220.931 86.5058C219.412 86.7234 218.072 86.2704 216.873 85.1004C215.742 83.8304 214.94 81.7821 214.523 78.8776C213.803 73.8506 214.108 69.9982 215.365 67.2639C216.62 64.5299 218.5 63.0372 221.007 62.678C222.773 62.4249 224.199 62.9868 225.346 64.397C226.53 65.8534 227.313 67.8002 227.667 70.2698C228.349 75.0277 227.959 78.8526 226.558 81.7864Z" fill="white" stroke="white"/>
<path d="M224.974 14.1251L224.902 14.0876L224.821 14.075C218.454 13.0853 211.443 12.4052 203.79 12.0338C196.101 11.5766 187.765 11.9933 178.785 13.2803C172.57 14.171 167.315 15.8796 163.035 18.4209L163.032 18.4227C158.852 20.9434 155.561 23.9989 153.175 27.5935C150.795 31.1789 149.292 35.0804 148.667 39.2934C148.044 43.5025 148.298 47.7167 149.427 51.9318L149.462 52.0614L149.556 52.1561C149.883 52.4828 150.344 52.788 150.86 52.6158C151.104 52.5344 151.286 52.3648 151.42 52.1772C151.553 51.9904 151.657 51.7607 151.742 51.5072L151.79 51.3614L151.749 51.2136C150.714 47.5473 150.46 43.9926 150.978 40.5446C151.497 37.0922 152.7 34.0149 154.583 31.3048L154.583 31.3049L154.588 31.2979C156.458 28.5073 159.029 26.1545 162.313 24.2435L162.313 24.2436L162.322 24.2383C165.582 22.2516 169.545 20.9164 174.223 20.246C180.367 19.3655 186.486 18.9179 192.58 18.9032C198.003 18.89 203.292 19.1336 208.446 19.6338C203.567 21.9451 199.509 25.922 196.263 31.5265C192.616 37.7161 189.963 45.8297 188.284 55.8457C187.058 62.905 185.714 68.8085 184.252 73.5611L184.251 73.5651C182.863 78.2136 181.147 81.9872 179.112 84.9008C177.08 87.8088 174.62 90.0096 171.731 91.5154C168.894 92.9344 165.475 93.9364 161.462 94.5116C155.609 95.3504 150.954 94.8221 147.447 92.9962C144.053 91.1728 142.056 88.2119 141.459 84.0475C141.213 82.3284 141.285 80.7944 141.661 79.4366C142.031 78.0985 142.818 76.8 144.05 75.543L144.109 75.4836L144.145 75.4085C144.366 74.9449 144.275 74.475 144.007 74.0655C143.91 73.8508 143.763 73.6557 143.544 73.5269C143.306 73.3867 143.042 73.3588 142.789 73.395L142.686 73.4099L142.597 73.465C139.985 75.0831 137.872 77.3389 136.254 80.2189L136.253 80.2212C134.695 83.0284 134.13 85.9743 134.57 89.0434C135.186 93.3412 137.455 96.6093 141.339 98.8171C145.223 101.025 150.264 101.652 156.411 100.771C167.593 99.1689 176.659 94.2066 183.581 85.8853L183.581 85.8851C190.568 77.4761 195.221 65.7704 197.577 50.8108C198.404 45.7942 199.375 41.4976 200.487 37.9172L200.489 37.9126C201.589 34.2458 202.859 31.2145 204.291 28.8091L204.291 28.8091L204.295 28.8011C205.719 26.3074 207.295 24.4082 209.015 23.082L209.022 23.0771L209.028 23.0719C210.721 21.6768 212.553 20.7542 214.527 20.2942C215.451 20.4106 216.293 20.538 217.055 20.6761L217.062 20.6775L217.07 20.6786L218.391 20.8771L219.713 21.0757L219.725 21.0774L219.736 21.0786C220.627 21.1703 221.612 20.7383 222.654 19.9685L222.655 19.9686L222.664 19.9609C223.803 19.0743 224.693 17.9952 225.33 16.7266C225.621 16.2282 225.804 15.7304 225.768 15.2641C225.729 14.744 225.428 14.36 224.974 14.1251Z" fill="white" stroke="white"/>
<path d="M106.407 83.6094L106.449 83.5534L106.474 83.488C106.799 82.6366 107.088 81.5812 107.343 80.3285C107.688 79.0375 107.802 77.879 107.657 76.8663C107.504 75.7946 106.552 75.1603 105.252 74.8098C103.986 74.4334 102.393 74.4001 100.501 74.6713C96.8144 75.1997 94.0498 76.3811 92.2998 78.284C90.5516 80.0874 89.8237 82.1868 90.1618 84.546C90.3907 86.1428 90.9629 87.6037 91.8768 88.9226L91.8838 88.9326L91.8912 88.9423C92.85 90.1911 93.851 91.4336 94.8942 92.6698L94.8989 92.6754L94.9038 92.6809C95.913 93.8077 96.8519 95.0306 97.7205 96.35L97.7305 96.3651L97.7415 96.3795C98.6413 97.5515 99.2008 98.8942 99.4191 100.417C99.6543 102.058 99.2739 103.537 98.267 104.88C97.356 106.096 95.8899 106.883 93.7823 107.185C92.2835 107.4 91.0415 107.14 90.0167 106.443C88.9761 105.66 88.3551 104.589 88.1553 103.195C88.0269 102.3 88.0608 101.653 88.2062 101.216L88.2108 101.202L88.2146 101.188C88.365 100.628 88.6358 100.081 89.0362 99.547L89.0658 99.5074L89.0872 99.4627C89.1974 99.2319 89.2378 98.9688 89.1531 98.7021C89.0773 98.4634 88.9188 98.2776 88.7381 98.1342C88.5864 97.9772 88.3778 97.8397 88.111 97.825C87.8233 97.8091 87.5871 97.9427 87.4151 98.0967L87.4091 98.1021L87.4033 98.1077C86.83 98.6554 86.3298 99.326 85.8991 100.112C85.4827 100.872 85.1086 101.627 84.7771 102.377C84.4435 103.132 84.1869 103.838 84.0102 104.496C83.837 105.14 83.7546 105.703 83.8178 106.144C84.0144 107.516 85.1833 108.515 86.9694 109.233L86.9693 109.233L86.9796 109.237C88.9103 109.965 91.3511 110.096 94.2687 109.678C98.3062 109.099 101.5 107.764 103.804 105.636C106.135 103.481 107.075 100.775 106.617 97.5754C106.352 95.7313 105.721 94.1413 104.71 92.8223C103.733 91.4807 102.687 90.2759 101.572 89.2089C100.557 88.0755 99.5898 86.9778 98.6699 85.9158C97.865 84.8122 97.3773 83.633 97.1968 82.374C96.979 80.8539 97.2226 79.7159 97.8425 78.8887C98.5512 77.9428 99.5431 77.3705 100.861 77.1816C101.831 77.0426 102.568 77.2713 103.141 77.8237L103.153 77.8351L103.165 77.8457C103.841 78.4173 104.269 79.2214 104.424 80.3037C104.578 81.3756 104.562 82.16 104.419 82.6916L104.393 82.7907L104.407 82.8923C104.476 83.3744 104.729 83.7648 105.176 83.9783L105.236 84.0071L105.302 84.0191C105.5 84.055 105.709 84.0517 105.911 83.9803C106.117 83.9076 106.282 83.776 106.407 83.6094Z" fill="white" stroke="white"/>
<path d="M29.0823 116.783L29.0823 116.783L29.0958 116.786C33.0894 117.706 37.5215 117.811 42.3849 117.113C48.7115 116.207 54.6211 113.92 60.1096 110.257C65.6736 106.589 70.4158 102.037 74.3344 96.6045C78.2529 91.1717 81.1295 85.1494 82.9643 78.5408C84.8748 71.8235 85.335 65.0069 84.3445 58.0958C83.7081 53.6554 82.4787 49.638 80.6513 46.0485C78.8231 42.4576 76.4686 39.4995 73.5847 37.184C70.6893 34.7844 67.3285 33.1132 63.5099 32.1686C59.7516 31.1242 55.5612 30.9406 50.948 31.6017C44.197 32.5693 37.9649 35.0329 32.2566 38.9883C26.6325 42.839 21.8371 47.6149 17.8719 53.3129L17.8717 53.3131C13.9803 58.9124 11.0814 65.0645 9.17501 71.7666L9.17498 71.7666L9.17349 71.7721C7.34948 78.4721 6.89997 85.0699 7.83031 91.5613C8.44277 95.8347 9.64895 99.6855 11.4542 103.108L11.4541 103.108L11.4592 103.117C13.35 106.527 15.7826 109.424 18.7561 111.806L18.7561 111.806L18.7624 111.811C21.7295 114.111 25.1719 115.767 29.0823 116.783ZM73.0541 52.0942L73.054 52.0942L73.0587 52.1041C74.6419 55.4452 75.7224 59.1189 76.2971 63.1284C77.2221 69.5829 77.0973 75.5754 75.9309 81.1103C74.7496 86.5744 72.8414 91.4062 70.2116 95.6116C67.5679 99.7354 64.3563 103.127 60.5771 105.792C56.8753 108.357 52.8705 109.945 48.5581 110.563C43.9625 111.222 39.79 111.138 36.0343 110.324C32.3456 109.411 29.1296 107.885 26.3783 105.75C23.6255 103.613 21.3762 100.895 19.6315 97.5878C17.8868 94.28 16.6994 90.4572 16.0767 86.1122C15.2118 80.0779 15.2462 74.3513 16.1747 68.9296C17.1883 63.4922 18.9645 58.6382 21.4986 54.3618C24.1148 50.0773 27.4726 46.5387 31.5746 43.7419L31.5746 43.7419L31.5777 43.7397C35.7417 40.8542 40.6137 39.0067 46.2049 38.2054C50.7125 37.5594 54.6739 37.7585 58.1014 38.7815C61.5475 39.81 64.5232 41.4513 67.0365 43.703C69.5516 45.9563 71.5584 48.7506 73.0541 52.0942Z" fill="white" stroke="white"/>
<path d="M618.956 98.6051L618.962 98.6007L618.968 98.5962C621.03 96.9774 622.851 94.9558 624.433 92.5373C626.089 90.0204 627.356 87.2541 628.237 84.2408C629.199 81.1031 629.437 77.8497 628.955 74.4865C628.6 72.0124 627.533 69.94 625.756 68.291C623.924 66.5915 621.433 66.0078 618.375 66.4461C615.816 66.8128 613.471 67.9611 611.344 69.8661C609.239 71.7512 607.451 73.9851 605.978 76.5641L605.978 76.5641L605.973 76.5744C604.59 79.1352 603.538 81.8663 602.818 84.7663L602.817 84.7663L602.814 84.7795C602.178 87.6761 602.034 90.3862 602.395 92.9047C602.796 95.6994 603.877 97.9473 605.666 99.607L605.676 99.6159L605.686 99.6243C607.585 101.209 610.057 101.751 613.029 101.325C614.912 101.055 616.889 100.133 618.956 98.6051ZM621.119 91.2341L621.118 91.2374C619.784 94.083 617.904 95.6079 615.492 95.9535C613.974 96.1711 612.634 95.7181 611.435 94.5481C610.304 93.2782 609.501 91.2298 609.085 88.3253C608.365 83.2983 608.67 79.4459 609.926 76.7116C611.182 73.9776 613.062 72.485 615.568 72.1257C617.334 71.8726 618.761 72.4345 619.907 73.8447C621.092 75.3011 621.875 77.2479 622.229 79.7176C622.911 84.4754 622.521 88.3003 621.119 91.2341Z" fill="white" stroke="white"/>
<path d="M586.561 71.617C585.187 71.3167 583.689 71.288 582.071 71.5199C578.789 71.9902 575.815 73.1221 573.156 74.917C570.509 76.7042 568.315 78.9121 566.578 81.539C564.843 84.1626 563.597 87.1084 562.837 90.3717C562.064 93.5609 561.918 96.8344 562.399 100.189C562.738 102.557 563.638 104.447 565.13 105.808C566.634 107.18 568.451 107.714 570.534 107.416L570.604 107.406L570.668 107.377C573.586 106.071 576.392 103.858 579.092 100.765L579.092 100.765L579.097 100.759C580.999 98.5089 582.527 96.071 583.68 93.4468C583.667 93.657 583.655 93.865 583.644 94.0707C583.571 95.3889 583.553 96.7842 583.591 98.2562L583.59 98.2562L583.591 98.265C583.668 100.071 584.212 101.65 585.234 102.982C586.322 104.399 587.925 104.923 589.92 104.637C590.861 104.502 591.825 104.077 592.806 103.398C593.864 102.712 594.818 101.907 595.665 100.984L595.668 100.981C596.576 99.9732 597.354 98.9375 597.997 97.8736C598.723 96.8011 599.251 95.7857 599.57 94.8287L599.587 94.7766L599.593 94.722C599.62 94.4565 599.575 94.1838 599.411 93.947C599.256 93.724 599.032 93.5849 598.793 93.5006C598.609 93.4169 598.395 93.3609 598.169 93.3933C597.914 93.4298 597.713 93.5685 597.572 93.756L597.532 93.8096L597.508 93.8718C597.017 95.1113 596.421 96.1432 595.726 96.9764C595.051 97.7851 594.322 98.2117 593.541 98.3236C593.203 98.3722 592.924 98.2999 592.672 98.1113C592.406 97.912 592.141 97.5593 591.901 96.9979C591.409 95.7897 591.223 94.2641 591.374 92.3979L591.375 92.389L591.375 92.3801C591.996 78.6857 593.178 66.8147 594.918 56.7638C596.732 46.6131 599.043 38.1725 601.845 31.4334C604.722 24.5921 608.029 19.3949 611.752 15.8113C615.475 12.2272 619.556 10.1329 623.999 9.4961C625.452 9.28788 626.557 9.45946 627.368 9.93714L627.382 9.94526L627.396 9.95249C628.116 10.3168 628.523 10.9956 628.535 12.1535L628.536 12.249L628.572 12.3374C628.747 12.7673 629.059 13.1136 629.543 13.2014L629.623 13.2159L629.703 13.2044C630.079 13.1505 630.4 12.9713 630.63 12.6651L630.678 12.6002L630.704 12.5232C631.202 11.0269 631.441 9.55837 631.415 8.12011L631.415 8.11649C631.377 6.60416 631.101 5.27749 630.57 4.15091C630.036 3.02047 629.255 2.14206 628.227 1.53344C627.246 0.889344 626.057 0.691108 624.705 0.884918C621.718 1.31295 618.817 2.76004 616.002 5.18305C613.186 7.51209 610.521 10.5118 608.006 14.1737C605.492 17.8323 603.104 22.0322 600.84 26.7711L600.84 26.7711L600.837 26.7773C598.661 31.4978 596.643 36.4111 594.782 41.5169C592.921 46.6243 591.29 51.8283 589.888 57.1287C588.527 62.1529 587.418 66.9823 586.561 71.617ZM584.814 81.254L584.809 81.2747L584.805 81.2959C584.316 83.8397 583.643 86.2806 582.785 88.6188C581.915 90.8737 580.934 92.9277 579.842 94.7821C578.736 96.5542 577.638 98.019 576.547 99.1822C575.445 100.26 574.51 100.793 573.739 100.903C572.798 101.038 572.009 100.795 571.329 100.166C570.689 99.4111 570.267 98.4147 570.085 97.1474C569.656 94.1505 569.638 91.3604 570.025 88.7741C570.5 86.1592 571.228 83.8596 572.204 81.8699C573.178 79.8857 574.408 78.2982 575.888 77.0941L575.895 77.0884L575.902 77.0825C577.371 75.797 578.937 75.0481 580.602 74.8094C581.712 74.6504 582.719 74.7481 583.633 75.0892L583.658 75.0983L583.683 75.1049C584.576 75.3352 585.216 75.8252 585.634 76.5884C585.575 77.3155 585.484 78.0862 585.362 78.9006C585.221 79.6783 585.038 80.4627 584.814 81.254Z" fill="white" stroke="white"/>
<path d="M554.515 99.4444L554.412 99.516L554.355 99.6279C553.584 101.135 552.455 102.455 550.953 103.585C549.451 104.715 547.947 105.375 546.441 105.591C544.328 105.894 542.806 105.533 541.772 104.626C540.71 103.695 539.996 102.207 539.691 100.081L539.69 100.076L539.689 100.07L539.689 100.065L539.688 100.059L539.687 100.054L539.686 100.048L539.686 100.043L539.685 100.038L539.684 100.032L539.683 100.027L539.682 100.021L539.682 100.016L539.681 100.01L539.68 100.005L539.679 99.9995L539.679 99.9941L539.678 99.9887L539.677 99.9833L539.676 99.9778L539.675 99.9724L539.675 99.967L539.674 99.9616L539.673 99.9561L539.672 99.9507L539.672 99.9453L539.671 99.9399L539.67 99.9345L539.669 99.929L539.668 99.9236L539.668 99.9182L539.667 99.9128L539.666 99.9074L539.665 99.902L539.665 99.8966L539.664 99.8911L539.663 99.8857L539.662 99.8803L539.661 99.8749L539.661 99.8695L539.66 99.8641L539.659 99.8587L539.658 99.8533L539.658 99.8479L539.657 99.8425L539.656 99.8371L539.655 99.8317L539.654 99.8263L539.654 99.8209L539.653 99.8155L539.652 99.8101L539.651 99.8047L539.651 99.7993L539.65 99.7939L539.649 99.7885L539.648 99.7831L539.648 99.7777L539.647 99.7723L539.646 99.767L539.645 99.7616L539.644 99.7562L539.644 99.7508L539.643 99.7454L539.642 99.74L539.641 99.7346L539.641 99.7293L539.64 99.7239L539.639 99.7185L539.638 99.7131L539.637 99.7077L539.637 99.7024L539.636 99.697L539.635 99.6916L539.634 99.6862L539.634 99.6809L539.633 99.6755L539.632 99.6701L539.631 99.6648L539.631 99.6594L539.63 99.654L539.629 99.6486L539.628 99.6433L539.627 99.6379L539.627 99.6325L539.626 99.6272L539.625 99.6218L539.624 99.6165L539.624 99.6111L539.623 99.6057L539.622 99.6004L539.621 99.595L539.621 99.5897L539.62 99.5843L539.619 99.579L539.618 99.5736L539.617 99.5682L539.617 99.5629L539.616 99.5575L539.615 99.5522L539.614 99.5468L539.614 99.5415L539.613 99.5362L539.612 99.5308L539.611 99.5255L539.611 99.5201L539.61 99.5148L539.609 99.5094L539.608 99.5041L539.608 99.4987L539.607 99.4934L539.606 99.4881L539.605 99.4827L539.604 99.4774L539.604 99.4721L539.603 99.4667L539.602 99.4614L539.601 99.4561L539.601 99.4507L539.6 99.4454L539.599 99.4401L539.598 99.4347L539.598 99.4294L539.597 99.4241L539.596 99.4188L539.595 99.4134L539.595 99.4081L539.594 99.4028L539.593 99.3975L539.592 99.3921L539.591 99.3868L539.591 99.3815L539.59 99.3762L539.589 99.3709L539.588 99.3656L539.588 99.3602L539.587 99.3549L539.586 99.3496L539.585 99.3443L539.585 99.339L539.584 99.3337L539.583 99.3284L539.582 99.3231L539.582 99.3177L539.581 99.3124L539.58 99.3071L539.579 99.3018L539.579 99.2965L539.578 99.2912L539.577 99.2859L539.576 99.2806L539.576 99.2753L539.575 99.27L539.574 99.2647L539.573 99.2594L539.572 99.2541L539.572 99.2488L539.571 99.2435L539.57 99.2383L539.569 99.233L539.569 99.2277L539.568 99.2224L539.567 99.2171L539.566 99.2118L539.566 99.2065L539.565 99.2012L539.564 99.1959L539.563 99.1907L539.563 99.1854L539.562 99.1801L539.561 99.1748L539.56 99.1695L539.56 99.1642L539.559 99.159L539.558 99.1537L539.557 99.1484L539.557 99.1431L539.556 99.1379L539.555 99.1326L539.554 99.1273L539.554 99.122L539.553 99.1168L539.552 99.1115L539.551 99.1062L539.551 99.101L539.55 99.0957L539.549 99.0904L539.548 99.0852L539.548 99.0799L539.547 99.0746L539.546 99.0694L539.545 99.0641L539.544 99.0589L539.544 99.0536L539.543 99.0483L539.542 99.0431L539.541 99.0378L539.541 99.0326L539.54 99.0273L539.539 99.0221L539.538 99.0168L539.538 99.0116L539.537 99.0063L539.536 99.0011L539.535 98.9958L539.535 98.9906L539.534 98.9853L539.533 98.9801L539.532 98.9748L539.532 98.9696L539.531 98.9643L539.53 98.9591L539.529 98.9539L539.529 98.9486L539.528 98.9434L539.527 98.9381L539.526 98.9329L539.526 98.9277L539.525 98.9224L539.524 98.9172L539.523 98.912L539.523 98.9067L539.522 98.9015L539.521 98.8963L539.52 98.891L539.52 98.8858L539.519 98.8806L539.518 98.8754L539.517 98.8701L539.517 98.8649L539.516 98.8597L539.515 98.8545L539.514 98.8492L539.514 98.844L539.513 98.8388L539.512 98.8336L539.511 98.8284L539.511 98.8232L539.51 98.8179L539.509 98.8127L539.508 98.8075L539.508 98.8023L539.507 98.7971L539.506 98.7919L539.505 98.7867L539.505 98.7815L539.504 98.7762L539.503 98.771L539.502 98.7658L539.502 98.7606L539.501 98.7554L539.5 98.7502L539.5 98.745L539.499 98.7398L539.498 98.7346L539.497 98.7294L539.497 98.7242L539.496 98.719L539.495 98.7138L539.494 98.7086L539.494 98.7034L539.493 98.6982L539.492 98.6931L539.491 98.6879L539.491 98.6827L539.49 98.6775L539.489 98.6723L539.488 98.6671L539.488 98.6619L539.487 98.6567L539.486 98.6515L539.485 98.6464L539.485 98.6412L539.484 98.636L539.483 98.6308L539.482 98.6256L539.482 98.6205L539.481 98.6153L539.48 98.6101L539.479 98.6049L539.479 98.5998L539.478 98.5946L539.477 98.5894L539.476 98.5842L539.476 98.5791L539.475 98.5739L539.474 98.5687L539.474 98.5636L539.473 98.5584L539.472 98.5532L539.471 98.5481L539.471 98.5429L539.47 98.5377L539.469 98.5326L539.468 98.5274L539.468 98.5222L539.467 98.5171L539.466 98.5119L539.465 98.5068L539.465 98.5016L539.464 98.4964L539.463 98.4913L539.462 98.4861L539.462 98.481L539.461 98.4758L539.46 98.4707L539.459 98.4655L539.459 98.4604L539.458 98.4552L539.457 98.4501L539.457 98.4449L539.456 98.4398L539.455 98.4347L539.454 98.4295L539.454 98.4244L539.453 98.4192L539.452 98.4141L539.451 98.4089L539.451 98.4038L539.45 98.3987L539.449 98.3935L539.448 98.3884L539.448 98.3833L539.447 98.3781L539.446 98.373L539.445 98.3679L539.445 98.3627L539.444 98.3576L539.443 98.3525L539.443 98.3474L539.442 98.3422L539.441 98.3371L539.44 98.332L539.44 98.3269L539.439 98.3217L539.438 98.3166L539.437 98.3115L539.437 98.3064L539.436 98.3012L539.435 98.2961L539.434 98.291L539.434 98.2859L539.433 98.2808L539.432 98.2757L539.432 98.2706L539.431 98.2654L539.43 98.2603L539.429 98.2552L539.429 98.2501L539.428 98.245L539.427 98.2399L539.426 98.2348L539.426 98.2297L539.425 98.2246L539.424 98.2195L539.423 98.2144L539.423 98.2093L539.422 98.2042L539.421 98.1991L539.421 98.194L539.42 98.1889L539.419 98.1838L539.418 98.1787L539.418 98.1736L539.417 98.1685L539.416 98.1634L539.415 98.1583L539.415 98.1532L539.414 98.1481L539.413 98.143L539.413 98.1379L539.412 98.1329L539.411 98.1278L539.41 98.1227L539.41 98.1176L539.409 98.1125L539.408 98.1074L539.407 98.1024L539.407 98.0973L539.406 98.0922L539.405 98.0871L539.404 98.082L539.404 98.077L539.403 98.0719L539.402 98.0668L539.402 98.0617L539.401 98.0567L539.4 98.0516L539.399 98.0465L539.399 98.0415L539.398 98.0364L539.397 98.0313L539.396 98.0263L539.396 98.0212L539.395 98.0161L539.394 98.0111L539.394 98.006L539.393 98.0009L539.392 97.9959L539.391 97.9908L539.391 97.9858L539.39 97.9807L539.389 97.9756L539.389 97.9706L539.388 97.9655L539.387 97.9605L539.386 97.9554L539.386 97.9504L539.385 97.9453L539.384 97.9403L539.383 97.9352L539.383 97.9302L539.382 97.9251L539.381 97.9201L539.381 97.915L539.38 97.91L539.379 97.9049L539.378 97.8999L539.378 97.8949L539.377 97.8898L539.376 97.8848L539.375 97.8797L539.375 97.8747L539.374 97.8697L539.373 97.8646L539.373 97.8596L539.372 97.8546L539.371 97.8495L539.37 97.8445L539.37 97.8395L539.369 97.8344L539.368 97.8294L539.368 97.8244L539.367 97.8193L539.366 97.8143L539.365 97.8093L539.365 97.8043L539.364 97.7992L539.363 97.7942L539.363 97.7892L539.362 97.7842L539.361 97.7792L539.36 97.7741L539.36 97.7691L539.359 97.7641L539.358 97.7591L539.357 97.7541L539.357 97.7491L539.356 97.744L539.355 97.739L539.355 97.734L539.354 97.729L539.353 97.724L539.352 97.719L539.352 97.714L539.351 97.709L539.35 97.704L539.35 97.699L539.349 97.694L539.348 97.689L539.347 97.684L539.347 97.679L539.346 97.674L539.345 97.669L539.345 97.664L539.344 97.659L539.343 97.654L539.342 97.649L539.342 97.644L539.341 97.639L539.34 97.634L539.34 97.629L539.339 97.624L539.338 97.619L539.337 97.6141L539.337 97.6091L539.336 97.6041L539.335 97.5991L539.335 97.5941L539.334 97.5891L539.333 97.5842L539.332 97.5792L539.332 97.5742L539.331 97.5692L539.33 97.5642L539.33 97.5593L539.329 97.5543L539.328 97.5493L539.327 97.5443L539.327 97.5394L539.326 97.5344L539.325 97.5294L539.325 97.5244L539.324 97.5195L539.323 97.5145L539.322 97.5095L539.322 97.5046L539.321 97.4996L539.32 97.4946L539.32 97.4897L539.319 97.4847L539.318 97.4798L539.317 97.4748L539.317 97.4698L539.316 97.4649L539.315 97.4599L539.315 97.455L539.314 97.45L539.313 97.4451L539.313 97.445L539.221 95.2916C545.3 93.5153 549.839 91.5802 552.8 89.4703C555.822 87.3169 557.299 84.9004 556.916 82.2248C556.662 80.4549 555.641 79.009 553.937 77.8869C552.268 76.6418 550.219 76.2142 547.84 76.5551C545.444 76.8985 543.184 78.0386 541.064 79.9374C539.025 81.7309 537.278 83.963 535.819 86.6263L535.819 86.6263L535.814 86.6366C534.443 89.2831 533.41 92.141 532.715 95.2086C532.004 98.2049 531.837 101.049 532.222 103.738C532.62 106.514 533.592 108.659 535.191 110.101L535.202 110.111L535.214 110.12C536.923 111.484 539.342 111.886 542.367 111.452C545.413 111.016 548.134 109.825 550.521 107.884L550.521 107.884L550.524 107.881C552.955 105.866 554.878 103.611 556.286 101.114L556.337 101.023L556.347 100.92C556.395 100.462 556.287 100.035 555.989 99.6896C555.837 99.4794 555.621 99.2904 555.323 99.2365C555.014 99.1804 554.735 99.2918 554.515 99.4444ZM547.738 82.1791L547.746 82.187L547.755 82.1946C548.531 82.8419 549.009 83.726 549.175 84.8859C549.384 86.3428 548.748 87.758 547.062 89.1495C545.448 90.3911 542.845 91.5045 539.203 92.4658C539.228 88.9506 539.753 86.3441 540.729 84.5936C541.84 82.6337 543.276 81.5814 545.033 81.3296C546.064 81.1818 546.953 81.4585 547.738 82.1791Z" fill="white" stroke="white"/>
<path d="M520.12 84.1887C518.983 85.908 517.982 87.9931 517.113 90.4384C517.12 90.1867 517.125 89.9361 517.129 89.6868C517.153 88.0263 517.073 86.5452 516.887 85.2463C516.71 84.0115 516.302 83.0298 515.592 82.4001C514.823 81.6419 513.652 81.4548 512.246 81.6563C511.162 81.8117 510.116 82.1924 509.111 82.791L509.105 82.795L509.098 82.7993C508.199 83.3744 507.323 84.0773 506.471 84.9055C505.69 85.6378 504.966 86.4495 504.299 87.3397C503.708 88.1289 503.2 88.9092 502.777 89.6808L502.755 89.7204L502.741 89.7632C502.657 90.0151 502.631 90.2846 502.709 90.55C502.787 90.8182 502.956 91.0299 503.17 91.19L503.235 91.2386L503.312 91.2643C503.576 91.3521 503.85 91.3687 504.122 91.2946C504.389 91.2214 504.621 91.0691 504.819 90.8713L504.876 90.8139L504.912 90.7413C505.498 89.5678 506.148 88.6085 506.856 87.8542L506.856 87.8542L506.859 87.8502C507.634 87.0067 508.369 86.5843 509.059 86.4853C509.321 86.4478 509.435 86.4978 509.485 86.5349C509.535 86.5721 509.615 86.668 509.652 86.9296L509.657 86.9604L509.665 86.9905C509.829 87.5905 509.926 88.5152 509.938 89.7919C509.927 91.5048 509.856 93.3999 509.725 95.4777C509.582 97.4697 509.366 99.5591 509.079 101.746C508.792 103.93 508.421 106.127 507.966 108.336L507.966 108.336L507.963 108.348C507.58 110.46 507.138 112.45 506.636 114.318L506.636 114.318L506.634 114.323C506.49 114.881 506.448 115.463 506.744 115.891C507.073 116.366 507.644 116.429 508.168 116.354C508.701 116.277 509.307 116.145 509.984 115.96L510.013 115.952L510.041 115.941C510.697 115.673 511.312 115.411 511.885 115.155L511.903 115.147L511.921 115.137C512.571 114.781 513.142 114.434 513.63 114.095L513.656 114.078L513.679 114.057C514.19 113.599 514.528 113.068 514.567 112.462C515.514 104.681 516.88 98.6794 518.649 94.4344C520.492 90.0892 522.8 87.8779 525.496 87.4915C526.365 87.367 526.913 87.492 527.244 87.7397L527.262 87.7533L527.281 87.7652C527.739 88.0472 527.966 88.3958 528.027 88.822C528.076 89.1685 528.293 89.4308 528.548 89.6217L528.613 89.6704L528.69 89.696C529.02 89.806 529.353 89.7582 529.639 89.5599L529.725 89.5003L529.78 89.4113C530.169 88.7805 530.557 87.7228 530.954 86.2892C531.441 84.822 531.649 83.5907 531.512 82.633C531.359 81.5667 530.835 80.7254 529.949 80.1493C529.052 79.5661 527.902 79.4125 526.564 79.6043C524.019 79.969 521.874 81.5352 520.12 84.1887Z" fill="white" stroke="white"/>
<path d="M503.197 83.3412C501.237 83.6221 499.315 83.9317 497.431 84.2702C498.762 76.0996 500.047 69.0384 501.286 63.0857C502.561 56.9638 503.84 51.7956 505.123 47.5781C506.408 43.3577 507.718 39.9672 509.049 37.3968L509.049 37.3969L509.053 37.3895C510.375 34.7304 511.768 32.6815 513.224 31.2229C514.77 29.7461 516.449 28.6752 518.26 28.001C520.105 27.3143 522.151 26.8083 524.401 26.4858C528.083 25.9581 530.744 26.2215 532.472 27.1678C534.252 28.1431 535.28 29.3868 535.65 30.8843L535.657 30.9132L535.667 30.9411C535.82 31.3466 536.095 31.7847 536.6 31.8606C537.074 31.9319 537.492 31.6349 537.81 31.3164L537.902 31.2243L537.938 31.0992C538.411 29.4258 538.539 27.7908 538.313 26.1991C538.172 24.5975 537.695 23.1641 536.875 21.9104C536.054 20.6544 534.955 19.7083 533.587 19.0785C532.262 18.3369 530.741 18.1016 529.053 18.3435C524.817 18.9507 520.727 20.7728 516.786 23.7857C512.909 26.7091 509.294 30.983 505.933 36.5826C502.556 42.1024 499.468 48.9573 496.664 57.1393L496.663 57.1435C493.968 65.2406 491.645 74.7185 489.691 85.5742L487.784 86.0674C487.097 86.167 486.416 86.309 485.741 86.4933C485.028 86.6882 484.302 87.0208 483.565 87.4815C482.825 87.8532 482.17 88.259 481.603 88.7008L481.589 88.7114L481.576 88.7229C481.093 89.1559 480.718 89.5915 480.476 90.0322C480.36 90.2442 480.215 90.6076 480.414 90.952C480.609 91.2897 480.99 91.3555 481.231 91.3688L481.328 91.3742L481.42 91.343C482.724 90.8997 484.076 90.4921 485.478 90.1201L485.492 90.1164L485.505 90.1119C486.669 89.7302 487.897 89.3691 489.189 89.0287L488.895 90.65L488.895 90.65L488.893 90.6617C486.957 103 485.015 112.872 483.07 120.284L483.068 120.289C481.206 127.693 479.157 133.416 476.932 137.479C474.631 141.644 472.085 144.426 469.319 145.898L469.319 145.898L469.309 145.904C466.5 147.486 463.183 148.557 459.347 149.107C457.362 149.392 455.753 149.326 454.495 148.945L454.481 148.941L454.468 148.938C453.193 148.628 452.264 148.123 451.637 147.454L451.626 147.442L451.614 147.431C450.885 146.747 450.425 145.958 450.219 145.06L450.218 145.056C450.022 144.231 450.059 143.414 450.332 142.596L450.369 142.484L450.352 142.367C450.298 141.991 450.119 141.67 449.813 141.441L449.773 141.411L449.729 141.39C449.498 141.279 449.235 141.239 448.968 141.324C448.713 141.405 448.518 141.581 448.371 141.777L448.36 141.791L448.35 141.807C446.952 143.988 446.413 146.292 446.759 148.701C447.08 150.946 448.162 152.696 449.997 153.911C451.767 155.153 454.117 155.522 456.975 155.112C461.202 154.507 465.304 152.818 469.279 150.063C473.266 147.3 477.005 143.27 480.502 137.994L480.505 137.99C483.922 132.72 487.006 126.121 489.763 118.201L489.763 118.199C492.509 110.192 494.773 100.665 496.556 89.6221C496.666 89.1647 496.735 88.711 496.762 88.2611C496.833 87.8677 496.908 87.4994 496.986 87.1559C499.045 86.7052 501.114 86.3308 503.195 86.0327L503.204 86.0313L503.214 86.0296C505.398 85.6302 507.457 85.249 509.388 84.8859L509.408 84.8822L509.428 84.8769C509.79 84.7778 510.112 84.6446 510.358 84.4575C510.614 84.2632 510.807 83.9942 510.843 83.6488C510.873 83.3559 510.802 83.0647 510.591 82.8296C510.395 82.6109 510.124 82.4911 509.848 82.4241L509.754 82.4014L509.659 82.415L509.646 82.4168L509.634 82.4186L509.622 82.4204L509.609 82.4221L509.597 82.4239L509.585 82.4257L509.572 82.4275L509.56 82.4292L509.547 82.431L509.535 82.4328L509.523 82.4346L509.51 82.4363L509.498 82.4381L509.485 82.4399L509.473 82.4417L509.461 82.4434L509.448 82.4452L509.436 82.447L509.424 82.4488L509.411 82.4505L509.399 82.4523L509.386 82.4541L509.374 82.4559L509.362 82.4576L509.349 82.4594L509.337 82.4612L509.324 82.463L509.312 82.4647L509.3 82.4665L509.287 82.4683L509.275 82.4701L509.262 82.4719L509.25 82.4736L509.238 82.4754L509.225 82.4772L509.213 82.479L509.2 82.4807L509.188 82.4825L509.176 82.4843L509.163 82.4861L509.151 82.4879L509.138 82.4896L509.126 82.4914L509.113 82.4932L509.101 82.495L509.089 82.4968L509.076 82.4985L509.064 82.5003L509.051 82.5021L509.039 82.5039L509.027 82.5057L509.014 82.5074L509.002 82.5092L508.989 82.511L508.977 82.5128L508.964 82.5146L508.952 82.5163L508.94 82.5181L508.927 82.5199L508.915 82.5217L508.902 82.5235L508.89 82.5253L508.877 82.527L508.865 82.5288L508.852 82.5306L508.84 82.5324L508.828 82.5342L508.815 82.5359L508.803 82.5377L508.79 82.5395L508.778 82.5413L508.765 82.5431L508.753 82.5449L508.741 82.5466L508.728 82.5484L508.716 82.5502L508.703 82.552L508.691 82.5538L508.678 82.5556L508.666 82.5573L508.653 82.5591L508.641 82.5609L508.628 82.5627L508.616 82.5645L508.604 82.5663L508.591 82.5681L508.579 82.5698L508.566 82.5716L508.554 82.5734L508.541 82.5752L508.529 82.577L508.516 82.5788L508.504 82.5806L508.491 82.5823L508.479 82.5841L508.467 82.5859L508.454 82.5877L508.442 82.5895L508.429 82.5913L508.417 82.5931L508.404 82.5949L508.392 82.5966L508.379 82.5984L508.367 82.6002L508.354 82.602L508.342 82.6038L508.329 82.6056L508.317 82.6074L508.304 82.6092L508.292 82.6109L508.279 82.6127L508.267 82.6145L508.254 82.6163L508.242 82.6181L508.229 82.6199L508.217 82.6217L508.204 82.6235L508.192 82.6253L508.18 82.627L508.167 82.6288L508.155 82.6306L508.142 82.6324L508.13 82.6342L508.117 82.636L508.105 82.6378L508.092 82.6396L508.08 82.6414L508.067 82.6432L508.055 82.645L508.042 82.6467L508.03 82.6485L508.017 82.6503L508.005 82.6521L507.992 82.6539L507.98 82.6557L507.967 82.6575L507.955 82.6593L507.942 82.6611L507.93 82.6629L507.917 82.6647L507.905 82.6665L507.892 82.6682L507.88 82.67L507.867 82.6718L507.854 82.6736L507.842 82.6754L507.829 82.6772L507.817 82.679L507.804 82.6808L507.792 82.6826L507.779 82.6844L507.767 82.6862L507.754 82.688L507.742 82.6898L507.729 82.6916L507.717 82.6934L507.704 82.6952L507.692 82.697L507.679 82.6988L507.667 82.7005L507.654 82.7023L507.642 82.7041L507.629 82.7059L507.617 82.7077L507.604 82.7095L507.591 82.7113L507.579 82.7131L507.566 82.7149L507.554 82.7167L507.541 82.7185L507.529 82.7203L507.516 82.7221L507.504 82.7239L507.491 82.7257L507.479 82.7275L507.466 82.7293L507.454 82.7311L507.441 82.7329L507.428 82.7347L507.416 82.7365L507.403 82.7383L507.391 82.7401L507.378 82.7419L507.366 82.7437L507.353 82.7455L507.341 82.7473L507.328 82.7491L507.316 82.7509L507.303 82.7527L507.29 82.7545L507.278 82.7563L507.265 82.7581L507.253 82.7599L507.24 82.7617L507.228 82.7635L507.215 82.7653L507.202 82.7671L507.19 82.7689L507.177 82.7707L507.165 82.7725L507.152 82.7743L507.14 82.7761L507.127 82.7779L507.115 82.7797L507.102 82.7815L507.089 82.7833L507.077 82.7851L507.064 82.7869L507.052 82.7887L507.039 82.7905L507.026 82.7923L507.014 82.7941L507.001 82.7959L506.989 82.7977L506.976 82.7995L506.964 82.8013L506.951 82.8031L506.938 82.8049L506.926 82.8067L506.913 82.8085L506.901 82.8103L506.888 82.8121L506.875 82.8139L506.863 82.8157L506.85 82.8175L506.838 82.8194L506.825 82.8212L506.813 82.823L506.8 82.8248L506.787 82.8266L506.775 82.8284L506.762 82.8302L506.75 82.832L506.737 82.8338L506.724 82.8356L506.712 82.8374L506.699 82.8392L506.687 82.841L506.674 82.8428L506.661 82.8446L506.649 82.8464L506.636 82.8482L506.624 82.8501L506.611 82.8519L506.598 82.8537L506.586 82.8555L506.573 82.8573L506.56 82.8591L506.548 82.8609L506.535 82.8627L506.523 82.8645L506.51 82.8663L506.497 82.8681L506.485 82.8699L506.472 82.8717L506.46 82.8736L506.447 82.8754L506.434 82.8772L506.422 82.879L506.409 82.8808L506.396 82.8826L506.384 82.8844L506.371 82.8862L506.359 82.888L506.346 82.8898L506.333 82.8917L506.321 82.8935L506.308 82.8953L506.295 82.8971L506.283 82.8989L506.27 82.9007L506.257 82.9025L506.245 82.9043L506.232 82.9061L506.22 82.9079L506.207 82.9098L506.194 82.9116L506.182 82.9134L506.169 82.9152L506.156 82.917L506.144 82.9188L506.131 82.9206L506.118 82.9224L506.106 82.9243L506.093 82.9261L506.08 82.9279L506.068 82.9297L506.055 82.9315L506.042 82.9333L506.03 82.9351L506.017 82.9369L506.005 82.9388L505.992 82.9406L505.979 82.9424L505.967 82.9442L505.954 82.946L505.941 82.9478L505.929 82.9496L505.916 82.9515L505.903 82.9533L505.891 82.9551L505.878 82.9569L505.865 82.9587L505.853 82.9605L505.84 82.9624L505.827 82.9642L505.815 82.966L505.802 82.9678L505.789 82.9696L505.777 82.9714L505.764 82.9732L505.751 82.9751L505.739 82.9769L505.726 82.9787L505.713 82.9805L505.701 82.9823L505.688 82.9842L505.675 82.986L505.662 82.9878L505.65 82.9896L505.637 82.9914L505.624 82.9932L505.612 82.9951L505.599 82.9969L505.586 82.9987L505.574 83.0005L505.561 83.0023L505.548 83.0041L505.536 83.006L505.523 83.0078L505.51 83.0096L505.498 83.0114L505.485 83.0132L505.472 83.0151L505.459 83.0169L505.447 83.0187L505.434 83.0205L505.421 83.0223L505.409 83.0242L505.396 83.026L505.383 83.0278L505.371 83.0296L505.358 83.0314L505.345 83.0333L505.332 83.0351L505.32 83.0369L505.307 83.0387L505.294 83.0406L505.282 83.0424L505.269 83.0442L505.256 83.046L505.243 83.0478L505.231 83.0497L505.218 83.0515L505.205 83.0533L505.193 83.0551L505.18 83.057L505.167 83.0588L505.154 83.0606L505.142 83.0624L505.129 83.0642L505.116 83.0661L505.104 83.0679L505.091 83.0697L505.078 83.0715L505.065 83.0734L505.053 83.0752L505.04 83.077L505.027 83.0788L505.014 83.0807L505.002 83.0825L504.989 83.0843L504.976 83.0861L504.964 83.088L504.951 83.0898L504.938 83.0916L504.925 83.0934L504.913 83.0953L504.9 83.0971L504.887 83.0989L504.874 83.1007L504.862 83.1026L504.849 83.1044L504.836 83.1062L504.823 83.108L504.811 83.1099L504.798 83.1117L504.785 83.1135L504.772 83.1154L504.76 83.1172L504.747 83.119L504.734 83.1208L504.721 83.1227L504.709 83.1245L504.696 83.1263L504.683 83.1281L504.67 83.13L504.658 83.1318L504.645 83.1336L504.632 83.1355L504.619 83.1373L504.607 83.1391L504.594 83.1409L504.581 83.1428L504.568 83.1446L504.555 83.1464L504.543 83.1483L504.53 83.1501L504.517 83.1519L504.504 83.1538L504.492 83.1556L504.479 83.1574L504.466 83.1592L504.453 83.1611L504.441 83.1629L504.428 83.1647L504.415 83.1666L504.402 83.1684L504.389 83.1702L504.377 83.1721L504.364 83.1739L504.351 83.1757L504.338 83.1776L504.326 83.1794L504.313 83.1812L504.3 83.1831L504.287 83.1849L504.274 83.1867L504.262 83.1886L504.249 83.1904L504.236 83.1922L504.223 83.1941L504.21 83.1959L504.198 83.1977L504.185 83.1996L504.172 83.2014L504.159 83.2032L504.146 83.2051L504.134 83.2069L504.121 83.2087L504.108 83.2106L504.095 83.2124L504.082 83.2142L504.07 83.2161L504.057 83.2179L504.044 83.2197L504.031 83.2216L504.018 83.2234L504.006 83.2252L503.993 83.2271L503.98 83.2289L503.967 83.2307L503.954 83.2326L503.942 83.2344L503.929 83.2363L503.916 83.2381L503.903 83.2399L503.89 83.2418L503.878 83.2436L503.865 83.2454L503.852 83.2473L503.839 83.2491L503.826 83.251L503.813 83.2528L503.801 83.2546L503.788 83.2565L503.775 83.2583L503.762 83.2601L503.749 83.262L503.736 83.2638L503.724 83.2657L503.711 83.2675L503.698 83.2693L503.685 83.2712L503.672 83.273L503.66 83.2748L503.647 83.2767L503.634 83.2785L503.621 83.2804L503.608 83.2822L503.595 83.284L503.582 83.2859L503.57 83.2877L503.557 83.2896L503.544 83.2914L503.531 83.2932L503.518 83.2951L503.505 83.2969L503.493 83.2988L503.48 83.3006L503.467 83.3025L503.454 83.3043L503.441 83.3061L503.428 83.308L503.415 83.3098L503.403 83.3117L503.39 83.3135L503.377 83.3153L503.364 83.3172L503.351 83.319L503.338 83.3209L503.325 83.3227L503.313 83.3246L503.3 83.3264L503.287 83.3282L503.274 83.3301L503.261 83.3319L503.248 83.3338L503.235 83.3356L503.223 83.3375L503.21 83.3393L503.197 83.3412Z" fill="white" stroke="white"/>
<path d="M512.283 30.9194L512.324 30.8644L512.349 30.8004C512.934 29.2931 513.22 27.8156 513.196 26.3715C513.256 24.9386 513.039 23.685 512.518 22.6331C512.07 21.4883 511.332 20.6337 510.302 20.1046C509.324 19.4675 508.139 19.2719 506.793 19.4649C503.089 19.9958 499.426 22.275 495.802 26.1962C492.186 30.1076 488.727 35.0312 485.421 40.9593L485.42 40.9604C482.188 46.7889 479.183 53.2735 476.404 60.4127C473.625 67.55 471.275 74.6701 469.355 81.7728L469.354 81.7758C467.506 88.7809 466.165 95.4151 465.332 101.678C464.487 107.856 464.345 112.97 464.923 117.003C465.139 118.505 465.632 119.743 466.434 120.679L466.444 120.691L466.455 120.702C467.416 121.69 468.81 121.995 470.505 121.752C472.513 121.464 474.555 120.242 476.631 118.188C478.714 116.128 480.429 113.684 481.778 110.859L481.816 110.781L481.824 110.695C481.849 110.454 481.825 110.205 481.711 109.977C481.609 109.774 481.454 109.622 481.268 109.515C481.12 109.373 480.923 109.254 480.675 109.24C480.388 109.224 480.151 109.358 479.979 109.512L479.916 109.569L479.875 109.644C478.859 111.499 477.921 112.892 477.065 113.841L477.058 113.849L477.051 113.857C476.303 114.763 475.496 115.242 474.633 115.365C474.097 115.442 473.69 115.278 473.348 114.836C472.977 114.356 472.678 113.533 472.5 112.297C471.828 107.608 471.669 102.322 472.026 96.4359C472.469 90.5344 473.325 84.5288 474.597 78.4191C475.869 72.3099 477.544 66.3148 479.622 60.4338C481.698 54.5557 484.073 49.2848 486.745 44.619C489.417 39.9539 492.284 36.1302 495.345 33.1389L495.346 33.1374C498.463 30.0648 501.688 28.3187 505.02 27.8412C506.839 27.5805 508.1 27.7413 508.895 28.2096L508.905 28.2154L508.915 28.2208C509.369 28.4611 509.678 28.7403 509.872 29.0462C510.064 29.349 510.162 29.7066 510.152 30.1381L510.149 30.2622L510.205 30.3733C510.382 30.7277 510.671 30.988 511.034 31.1615C511.224 31.2525 511.45 31.3161 511.687 31.2821C511.942 31.2456 512.143 31.1069 512.283 30.9194Z" fill="white" stroke="white"/>
<path d="M452.722 47.7297L452.662 47.7008L452.596 47.6889C449.927 47.2048 446.839 46.7825 443.333 46.4213C439.892 45.9628 436.261 45.6619 432.438 45.5183C428.685 45.278 424.871 45.2193 420.998 45.3419C417.107 45.3803 413.418 45.6488 409.932 46.1483C401.646 47.3358 395.17 50.5326 390.553 55.7705C385.929 61.016 383.728 67.9246 383.902 76.4428L383.904 76.5233L383.931 76.5992C384.097 77.0692 384.396 77.5156 384.929 77.6121L384.948 77.6156L384.967 77.6175C385.26 77.6477 385.551 77.5762 385.786 77.3657C386.005 77.1699 386.124 76.8982 386.191 76.6223L386.207 76.5594L386.205 76.4947C386.059 68.9162 387.749 63.2091 391.196 59.2916L391.196 59.2916L391.2 59.2871C394.653 55.2658 399.476 52.795 405.713 51.901C411.251 51.1074 417.093 50.9123 423.241 51.3178L423.241 51.3178L423.249 51.3182C429.157 51.6121 434.918 52.2358 440.533 53.1892C433.755 60.3382 427.932 67.1103 423.067 73.5054C418.181 79.9269 413.738 85.9052 409.737 91.4401C406.876 91.9343 404.296 92.3883 401.998 92.8019C399.719 93.1286 398.023 93.4147 396.919 93.6606L396.907 93.6632L396.895 93.6663C396.179 93.862 395.451 94.1962 394.711 94.6595C394.041 95.0282 393.463 95.4757 392.982 96.004C392.508 96.4312 392.14 96.861 391.902 97.2956C391.786 97.5077 391.641 97.871 391.839 98.2155C392.034 98.5532 392.415 98.619 392.657 98.6323L392.744 98.6371L392.827 98.6122C395.045 97.9519 397.444 97.3507 400.027 96.8089L400.035 96.8073L400.043 96.8054C402.237 96.2713 404.558 95.75 407.006 95.2416L402.586 101.141C400.928 103.354 399.253 105.439 397.56 107.398L397.56 107.398L397.553 107.406C392.734 113.238 387.391 118.069 381.525 121.904L381.522 121.905C375.759 125.715 369.326 128.13 362.217 129.149C357.798 129.782 354.057 129.51 350.971 128.368C347.84 127.128 345.434 125.463 343.725 123.388C342.083 121.209 341.161 118.813 340.95 116.19C340.811 113.481 341.526 110.984 343.104 108.684L343.192 108.556L343.192 108.401C343.191 107.744 342.992 107.096 342.351 106.857C342.129 106.741 341.889 106.662 341.641 106.662C341.364 106.662 341.114 106.761 340.909 106.943L340.852 106.995L340.813 107.061C338.491 110.976 337.119 114.901 336.714 118.834C336.31 122.753 336.764 126.268 338.096 129.364L338.096 129.364L338.101 129.375C339.525 132.469 341.787 134.863 344.871 136.553L344.878 136.556C348.076 138.247 352.009 138.734 356.642 138.07C365.242 136.838 372.88 133.961 379.547 129.435C386.275 124.913 392.588 119.065 398.488 111.9C400.63 109.344 402.782 106.572 404.946 103.583C407.155 100.635 409.422 97.5127 411.747 94.2152C415.288 93.5402 418.916 92.8942 422.632 92.2771C426.302 91.6693 430.017 91.0941 433.774 90.5513C433.312 97.5944 433.553 104.417 434.5 111.019C435.196 115.881 436.596 119.584 438.749 122.063L438.749 122.063L438.757 122.071C441.026 124.568 443.96 125.556 447.49 125.05C449.931 124.7 452.321 123.159 454.665 120.544C457.097 117.913 459.162 114.641 460.868 110.739L460.899 110.667L460.907 110.59C460.932 110.348 460.907 110.099 460.793 109.871C460.676 109.637 460.487 109.471 460.263 109.363C460.053 109.263 459.821 109.213 459.578 109.247C459.335 109.282 459.126 109.396 458.953 109.551L458.876 109.621L458.832 109.716C456.492 114.832 453.725 117.457 450.603 117.904C449.454 118.069 448.468 117.948 447.625 117.569C446.786 117.191 446.053 116.541 445.433 115.587C444.227 113.52 443.323 110.495 442.746 106.475C441.975 101.095 441.643 95.7821 441.749 90.5364C441.854 85.2866 442.332 80.2435 443.182 75.4066C444.032 70.5723 445.27 66.0725 446.897 61.9056L446.898 61.9013C448.511 57.6535 450.481 53.8295 452.806 50.4269C453.03 50.1273 453.207 49.8518 453.325 49.6045C453.438 49.3693 453.53 49.0911 453.491 48.8157C453.422 48.3336 453.169 47.9432 452.722 47.7297ZM437.136 69.5819C435.536 75.577 434.488 81.6594 433.992 87.8285L433.979 87.8304L433.965 87.8324L433.951 87.8345L433.937 87.8365L433.923 87.8385L433.909 87.8405L433.895 87.8425L433.881 87.8445L433.867 87.8465L433.853 87.8485L433.838 87.8506L433.824 87.8526L433.81 87.8546L433.796 87.8567L433.782 87.8587L433.767 87.8607L433.753 87.8628L433.739 87.8648L433.725 87.8669L433.71 87.8689L433.696 87.871L433.682 87.873L433.667 87.8751L433.653 87.8771L433.639 87.8792L433.624 87.8813L433.61 87.8833L433.595 87.8854L433.581 87.8875L433.566 87.8896L433.552 87.8916L433.537 87.8937L433.523 87.8958L433.508 87.8979L433.494 87.9L433.479 87.9021L433.464 87.9042L433.45 87.9063L433.435 87.9084L433.42 87.9105L433.406 87.9126L433.391 87.9147L433.376 87.9168L433.361 87.9189L433.347 87.9211L433.332 87.9232L433.317 87.9253L433.302 87.9274L433.287 87.9296L433.272 87.9317L433.257 87.9338L433.243 87.936L433.228 87.9381L433.213 87.9403L433.198 87.9424L433.183 87.9445L433.168 87.9467L433.153 87.9489L433.138 87.951L433.123 87.9532L433.107 87.9553L433.092 87.9575L433.077 87.9597L433.062 87.9618L433.047 87.964L433.032 87.9662L433.016 87.9684L433.001 87.9706L432.986 87.9727L432.971 87.9749L432.955 87.9771L432.94 87.9793L432.925 87.9815L432.909 87.9837L432.894 87.9859L432.879 87.9881L432.863 87.9903L432.848 87.9925L432.832 87.9948L432.817 87.997L432.801 87.9992L432.786 88.0014L432.77 88.0036L432.755 88.0059L432.739 88.0081L432.724 88.0103L432.708 88.0126L432.693 88.0148L432.677 88.017L432.661 88.0193L432.646 88.0215L432.63 88.0238L432.614 88.026L432.598 88.0283L432.583 88.0305L432.567 88.0328L432.551 88.0351L432.535 88.0373L432.52 88.0396L432.504 88.0419L432.488 88.0441L432.472 88.0464L432.456 88.0487L432.44 88.051L432.424 88.0533L432.408 88.0556L432.392 88.0578L432.376 88.0601L432.36 88.0624L432.344 88.0647L432.328 88.067L432.312 88.0693L432.296 88.0716L432.28 88.074L432.264 88.0763L432.247 88.0786L432.231 88.0809L432.215 88.0832L432.199 88.0855L432.183 88.0879L432.166 88.0902L432.15 88.0925L432.134 88.0949L432.118 88.0972L432.101 88.0995L432.085 88.1019L432.068 88.1042L432.052 88.1066L432.036 88.1089L432.019 88.1113L432.003 88.1136L431.986 88.116L431.97 88.1184L431.953 88.1207L431.937 88.1231L431.92 88.1255L431.904 88.1279L431.887 88.1302L431.871 88.1326L431.854 88.135L431.837 88.1374L431.821 88.1398L431.804 88.1422L431.787 88.1445L431.771 88.1469L431.754 88.1493L431.737 88.1517L431.72 88.1541L431.703 88.1566L431.687 88.159L431.67 88.1614L431.653 88.1638L431.636 88.1662L431.619 88.1686L431.602 88.1711L431.585 88.1735L431.568 88.1759L431.551 88.1783L431.534 88.1808L431.517 88.1832L431.5 88.1857L431.483 88.1881L431.466 88.1905L431.449 88.193L431.432 88.1954L431.415 88.1979L431.398 88.2004L431.381 88.2028L431.363 88.2053L431.346 88.2077L431.329 88.2102L431.312 88.2127L431.295 88.2152L431.277 88.2176L431.26 88.2201L431.243 88.2226L431.225 88.2251L431.208 88.2276L431.191 88.2301L431.173 88.2325L431.156 88.235L431.138 88.2375L431.121 88.24L431.103 88.2425L431.086 88.2451L431.068 88.2476L431.051 88.2501L431.033 88.2526L431.016 88.2551L430.998 88.2576L430.981 88.2602L430.963 88.2627L430.945 88.2652L430.928 88.2677L430.91 88.2703L430.892 88.2728L430.875 88.2754L430.857 88.2779L430.839 88.2804L430.821 88.283L430.803 88.2855L430.786 88.2881L430.768 88.2906L430.75 88.2932L430.732 88.2958L430.714 88.2983L430.696 88.3009L430.678 88.3035L430.66 88.306L430.642 88.3086L430.624 88.3112L430.606 88.3138L430.588 88.3164L430.57 88.319L430.552 88.3215L430.534 88.3241L430.516 88.3267L430.498 88.3293L430.48 88.3319L430.462 88.3345L430.443 88.3371L430.425 88.3398L430.407 88.3424L430.389 88.345L430.37 88.3476L430.352 88.3502L430.334 88.3528L430.316 88.3555L430.297 88.3581L430.279 88.3607L430.26 88.3634L430.242 88.366L430.224 88.3686L430.205 88.3713L430.187 88.3739L430.168 88.3766L430.15 88.3792L430.131 88.3819L430.113 88.3845L430.094 88.3872L430.076 88.3899L430.057 88.3925L430.038 88.3952L430.02 88.3979L430.001 88.4005L429.982 88.4032L429.964 88.4059L429.945 88.4086L429.926 88.4113L429.908 88.4139L429.889 88.4166L429.87 88.4193L429.851 88.422L429.832 88.4247L429.814 88.4274L429.795 88.4301L429.776 88.4328L429.757 88.4355L429.738 88.4382L429.719 88.441L429.7 88.4437L429.681 88.4464L429.662 88.4491L429.643 88.4518L429.624 88.4546L429.605 88.4573L429.586 88.46L429.567 88.4628L429.548 88.4655L429.529 88.4683L429.509 88.471L429.49 88.4738L429.471 88.4765L429.452 88.4793L429.433 88.482L429.413 88.4848L429.394 88.4875L429.375 88.4903L429.355 88.4931L429.336 88.4958L429.317 88.4986L429.297 88.5014L429.278 88.5042L429.259 88.5069L429.239 88.5097L429.22 88.5125L429.2 88.5153L429.181 88.5181L429.161 88.5209L429.142 88.5237L429.122 88.5265L429.103 88.5293L429.083 88.5321L429.063 88.5349L429.044 88.5377L429.024 88.5405L429.005 88.5434L428.985 88.5462L428.965 88.549L428.945 88.5518L428.926 88.5546L428.906 88.5575L428.886 88.5603L428.866 88.5631L428.847 88.566L428.827 88.5688L428.807 88.5717L428.787 88.5745L428.767 88.5774L428.747 88.5802L428.727 88.5831L428.707 88.5859L428.687 88.5888L428.667 88.5917L428.647 88.5945L428.627 88.5974L428.607 88.6003L428.587 88.6032L428.567 88.606L428.547 88.6089L428.527 88.6118L428.507 88.6147L428.487 88.6176L428.467 88.6205L428.446 88.6234L428.426 88.6263L428.406 88.6292L428.386 88.6321L428.365 88.635L428.345 88.6379L428.325 88.6408L428.304 88.6437L428.284 88.6466L428.264 88.6495L428.243 88.6525L428.223 88.6554L428.202 88.6583L428.182 88.6612L428.162 88.6642L428.141 88.6671L428.121 88.67L428.1 88.673L428.079 88.6759L428.059 88.6789L428.038 88.6818L428.018 88.6848L427.997 88.6877L427.976 88.6907L427.956 88.6937L427.935 88.6966L427.914 88.6996L427.894 88.7026L427.873 88.7055L427.852 88.7085L427.831 88.7115L427.811 88.7145L427.79 88.7175L427.769 88.7204L427.748 88.7234L427.727 88.7264L427.706 88.7294L427.685 88.7324L427.664 88.7354L427.644 88.7384L427.623 88.7414L427.602 88.7444L427.581 88.7474L427.56 88.7505L427.538 88.7535L427.517 88.7565L427.496 88.7595L427.475 88.7625L427.454 88.7656L427.433 88.7686L427.412 88.7716L427.391 88.7747L427.369 88.7777L427.348 88.7807L427.327 88.7838L427.306 88.7868L427.284 88.7899L427.263 88.7929L427.242 88.796L427.22 88.799L427.199 88.8021L427.178 88.8052L427.156 88.8082L427.135 88.8113L427.113 88.8144L427.092 88.8175L427.071 88.8205L427.049 88.8236L427.028 88.8267L427.006 88.8298L426.984 88.8329L426.963 88.836L426.941 88.8391L426.92 88.8422L426.898 88.8453L426.876 88.8484L426.855 88.8515L426.833 88.8546L426.811 88.8577L426.79 88.8608L426.768 88.8639L426.746 88.867L426.724 88.8702L426.703 88.8733L426.681 88.8764L426.659 88.8795L426.637 88.8827L426.615 88.8858L426.593 88.8889L426.571 88.8921L426.549 88.8952L426.527 88.8984L426.505 88.9015L426.483 88.9047L426.461 88.9078L426.439 88.911L426.417 88.9142L426.395 88.9173L426.373 88.9205L426.351 88.9237L426.329 88.9268L426.307 88.93L426.285 88.9332L426.262 88.9364L426.24 88.9395L426.218 88.9427L426.196 88.9459L426.173 88.9491L426.151 88.9523L426.129 88.9555L426.107 88.9587L426.084 88.9619L426.062 88.9651L426.039 88.9683L426.017 88.9715L425.995 88.9747L425.972 88.9779L425.95 88.9812L425.927 88.9844L425.905 88.9876L425.882 88.9908L425.86 88.9941L425.837 88.9973L425.815 89.0005L425.792 89.0038L425.769 89.007L425.747 89.0103L425.724 89.0135L425.701 89.0168L425.679 89.02L425.656 89.0233L425.633 89.0265L425.611 89.0298L425.588 89.033L425.565 89.0363L425.542 89.0396L425.519 89.0429L425.496 89.0461L425.474 89.0494L425.451 89.0527L425.428 89.056L425.405 89.0593L425.382 89.0625L425.359 89.0658L425.336 89.0691L425.313 89.0724L425.29 89.0757L425.267 89.079L425.244 89.0823L425.221 89.0856L425.198 89.0889L425.175 89.0923L425.151 89.0956L425.128 89.0989L425.105 89.1022L425.082 89.1055L425.059 89.1089L425.035 89.1122L425.012 89.1155C421.503 89.6184 417.931 90.1655 414.295 90.7569C418.265 85.1992 422.618 79.3553 427.354 73.2253C431.73 67.5599 436.702 61.6757 442.27 55.5728C440.159 59.9941 438.448 64.664 437.136 69.5819Z" fill="white" stroke="white"/>
<path d="M289.968 137.359L289.865 137.43L289.807 137.542C289.037 139.05 287.908 140.369 286.406 141.499C284.904 142.63 283.4 143.29 281.894 143.506C279.781 143.809 278.259 143.447 277.225 142.541C276.163 141.609 275.449 140.122 275.144 137.996L275.143 137.99L275.142 137.985L275.142 137.979L275.141 137.974L275.14 137.968L275.139 137.963L275.139 137.958L275.138 137.952L275.137 137.947L275.136 137.941L275.135 137.936L275.135 137.93L275.134 137.925L275.133 137.919L275.132 137.914L275.131 137.909L275.131 137.903L275.13 137.898L275.129 137.892L275.128 137.887L275.128 137.881L275.127 137.876L275.126 137.871L275.125 137.865L275.124 137.86L275.124 137.854L275.123 137.849L275.122 137.844L275.121 137.838L275.121 137.833L275.12 137.827L275.119 137.822L275.118 137.816L275.118 137.811L275.117 137.806L275.116 137.8L275.115 137.795L275.114 137.789L275.114 137.784L275.113 137.779L275.112 137.773L275.111 137.768L275.111 137.762L275.11 137.757L275.109 137.752L275.108 137.746L275.107 137.741L275.107 137.735L275.106 137.73L275.105 137.725L275.104 137.719L275.104 137.714L275.103 137.708L275.102 137.703L275.101 137.698L275.1 137.692L275.1 137.687L275.099 137.681L275.098 137.676L275.097 137.671L275.097 137.665L275.096 137.66L275.095 137.655L275.094 137.649L275.094 137.644L275.093 137.638L275.092 137.633L275.091 137.628L275.09 137.622L275.09 137.617L275.089 137.611L275.088 137.606L275.087 137.601L275.087 137.595L275.086 137.59L275.085 137.585L275.084 137.579L275.084 137.574L275.083 137.569L275.082 137.563L275.081 137.558L275.08 137.552L275.08 137.547L275.079 137.542L275.078 137.536L275.077 137.531L275.077 137.526L275.076 137.52L275.075 137.515L275.074 137.51L275.074 137.504L275.073 137.499L275.072 137.493L275.071 137.488L275.07 137.483L275.07 137.477L275.069 137.472L275.068 137.467L275.067 137.461L275.067 137.456L275.066 137.451L275.065 137.445L275.064 137.44L275.064 137.435L275.063 137.429L275.062 137.424L275.061 137.419L275.06 137.413L275.06 137.408L275.059 137.403L275.058 137.397L275.057 137.392L275.057 137.387L275.056 137.381L275.055 137.376L275.054 137.371L275.054 137.365L275.053 137.36L275.052 137.355L275.051 137.349L275.051 137.344L275.05 137.339L275.049 137.333L275.048 137.328L275.048 137.323L275.047 137.317L275.046 137.312L275.045 137.307L275.044 137.301L275.044 137.296L275.043 137.291L275.042 137.285L275.041 137.28L275.041 137.275L275.04 137.269L275.039 137.264L275.038 137.259L275.038 137.253L275.037 137.248L275.036 137.243L275.035 137.238L275.035 137.232L275.034 137.227L275.033 137.222L275.032 137.216L275.032 137.211L275.031 137.206L275.03 137.2L275.029 137.195L275.028 137.19L275.028 137.185L275.027 137.179L275.026 137.174L275.025 137.169L275.025 137.163L275.024 137.158L275.023 137.153L275.022 137.147L275.022 137.142L275.021 137.137L275.02 137.132L275.019 137.126L275.019 137.121L275.018 137.116L275.017 137.11L275.016 137.105L275.016 137.1L275.015 137.095L275.014 137.089L275.013 137.084L275.013 137.079L275.012 137.073L275.011 137.068L275.01 137.063L275.01 137.058L275.009 137.052L275.008 137.047L275.007 137.042L275.007 137.037L275.006 137.031L275.005 137.026L275.004 137.021L275.003 137.015L275.003 137.01L275.002 137.005L275.001 137L275 136.994L275 136.989L274.999 136.984L274.998 136.979L274.997 136.973L274.997 136.968L274.996 136.963L274.995 136.958L274.994 136.952L274.994 136.947L274.993 136.942L274.992 136.937L274.991 136.931L274.991 136.926L274.99 136.921L274.989 136.916L274.988 136.91L274.988 136.905L274.987 136.9L274.986 136.895L274.985 136.889L274.985 136.884L274.984 136.879L274.983 136.874L274.982 136.868L274.982 136.863L274.981 136.858L274.98 136.853L274.979 136.847L274.979 136.842L274.978 136.837L274.977 136.832L274.976 136.826L274.976 136.821L274.975 136.816L274.974 136.811L274.973 136.806L274.973 136.8L274.972 136.795L274.971 136.79L274.97 136.785L274.97 136.779L274.969 136.774L274.968 136.769L274.967 136.764L274.967 136.759L274.966 136.753L274.965 136.748L274.964 136.743L274.964 136.738L274.963 136.732L274.962 136.727L274.961 136.722L274.961 136.717L274.96 136.712L274.959 136.706L274.958 136.701L274.958 136.696L274.957 136.691L274.956 136.686L274.955 136.68L274.955 136.675L274.954 136.67L274.953 136.665L274.952 136.66L274.952 136.654L274.951 136.649L274.95 136.644L274.949 136.639L274.949 136.634L274.948 136.628L274.947 136.623L274.947 136.618L274.946 136.613L274.945 136.608L274.944 136.602L274.944 136.597L274.943 136.592L274.942 136.587L274.941 136.582L274.941 136.576L274.94 136.571L274.939 136.566L274.938 136.561L274.938 136.556L274.937 136.551L274.936 136.545L274.935 136.54L274.935 136.535L274.934 136.53L274.933 136.525L274.932 136.519L274.932 136.514L274.931 136.509L274.93 136.504L274.929 136.499L274.929 136.494L274.928 136.488L274.927 136.483L274.926 136.478L274.926 136.473L274.925 136.468L274.924 136.463L274.924 136.457L274.923 136.452L274.922 136.447L274.921 136.442L274.921 136.437L274.92 136.432L274.919 136.426L274.918 136.421L274.918 136.416L274.917 136.411L274.916 136.406L274.915 136.401L274.915 136.395L274.914 136.39L274.913 136.385L274.912 136.38L274.912 136.375L274.911 136.37L274.91 136.365L274.909 136.359L274.909 136.354L274.908 136.349L274.907 136.344L274.907 136.339L274.906 136.334L274.905 136.329L274.904 136.323L274.904 136.318L274.903 136.313L274.902 136.308L274.901 136.303L274.901 136.298L274.9 136.293L274.899 136.288L274.898 136.282L274.898 136.277L274.897 136.272L274.896 136.267L274.895 136.262L274.895 136.257L274.894 136.252L274.893 136.246L274.893 136.241L274.892 136.236L274.891 136.231L274.89 136.226L274.89 136.221L274.889 136.216L274.888 136.211L274.887 136.206L274.887 136.2L274.886 136.195L274.885 136.19L274.884 136.185L274.884 136.18L274.883 136.175L274.882 136.17L274.882 136.165L274.881 136.16L274.88 136.154L274.879 136.149L274.879 136.144L274.878 136.139L274.877 136.134L274.876 136.129L274.876 136.124L274.875 136.119L274.874 136.114L274.873 136.108L274.873 136.103L274.872 136.098L274.871 136.093L274.871 136.088L274.87 136.083L274.869 136.078L274.868 136.073L274.868 136.068L274.867 136.063L274.866 136.058L274.865 136.052L274.865 136.047L274.864 136.042L274.863 136.037L274.863 136.032L274.862 136.027L274.861 136.022L274.86 136.017L274.86 136.012L274.859 136.007L274.858 136.002L274.857 135.997L274.857 135.991L274.856 135.986L274.855 135.981L274.855 135.976L274.854 135.971L274.853 135.966L274.852 135.961L274.852 135.956L274.851 135.951L274.85 135.946L274.849 135.941L274.849 135.936L274.848 135.931L274.847 135.926L274.847 135.921L274.846 135.915L274.845 135.91L274.844 135.905L274.844 135.9L274.843 135.895L274.842 135.89L274.841 135.885L274.841 135.88L274.84 135.875L274.839 135.87L274.839 135.865L274.838 135.86L274.837 135.855L274.836 135.85L274.836 135.845L274.835 135.84L274.834 135.835L274.834 135.83L274.833 135.824L274.832 135.819L274.831 135.814L274.831 135.809L274.83 135.804L274.829 135.799L274.828 135.794L274.828 135.789L274.827 135.784L274.826 135.779L274.826 135.774L274.825 135.769L274.824 135.764L274.823 135.759L274.823 135.754L274.822 135.749L274.821 135.744L274.821 135.739L274.82 135.734L274.819 135.729L274.818 135.724L274.818 135.719L274.817 135.714L274.816 135.709L274.815 135.704L274.815 135.699L274.814 135.694L274.813 135.689L274.813 135.684L274.812 135.679L274.811 135.674L274.81 135.669L274.81 135.664L274.809 135.659L274.808 135.654L274.808 135.649L274.807 135.644L274.806 135.639L274.805 135.634L274.805 135.629L274.804 135.623L274.803 135.618L274.803 135.613L274.802 135.608L274.801 135.603L274.8 135.598L274.8 135.593L274.799 135.588L274.798 135.583L274.798 135.578L274.797 135.573L274.796 135.568L274.795 135.563L274.795 135.559L274.794 135.554L274.793 135.549L274.793 135.544L274.792 135.539L274.791 135.534L274.79 135.529L274.79 135.524L274.789 135.519L274.788 135.514L274.788 135.509L274.787 135.504L274.786 135.499L274.785 135.494L274.785 135.489L274.784 135.484L274.783 135.479L274.783 135.474L274.782 135.469L274.781 135.464L274.78 135.459L274.78 135.454L274.779 135.449L274.778 135.444L274.778 135.439L274.777 135.434L274.776 135.429L274.775 135.424L274.775 135.419L274.774 135.414L274.773 135.409L274.773 135.404L274.772 135.399L274.771 135.394L274.77 135.389L274.77 135.384L274.769 135.379L274.768 135.374L274.768 135.369L274.767 135.365L274.766 135.36L274.766 135.359L274.674 133.206C280.753 131.43 285.292 129.495 288.253 127.385C291.274 125.231 292.752 122.815 292.369 120.139C292.115 118.369 291.094 116.924 289.39 115.801C287.721 114.556 285.672 114.129 283.293 114.47C280.897 114.813 278.637 115.953 276.517 117.852C274.478 119.645 272.731 121.878 271.272 124.541L271.272 124.541L271.267 124.551C269.896 127.198 268.863 130.056 268.168 133.123C267.457 136.119 267.29 138.964 267.675 141.652C268.073 144.429 269.045 146.574 270.644 148.015L270.655 148.026L270.667 148.035C272.376 149.398 274.795 149.8 277.82 149.367C280.866 148.93 283.587 147.74 285.974 145.799L285.974 145.799L285.977 145.796C288.408 143.781 290.331 141.526 291.739 139.029L291.79 138.938L291.8 138.834C291.848 138.377 291.74 137.95 291.442 137.604C291.29 137.394 291.074 137.205 290.776 137.151C290.467 137.095 290.188 137.206 289.968 137.359ZM283.191 120.094L283.199 120.102L283.208 120.109C283.984 120.756 284.462 121.64 284.628 122.8C284.837 124.257 284.201 125.672 282.515 127.064C280.901 128.306 278.298 129.419 274.656 130.38C274.681 126.865 275.206 124.259 276.182 122.508C277.293 120.548 278.729 119.496 280.486 119.244C281.517 119.096 282.406 119.373 283.191 120.094Z" fill="white" stroke="white"/>
<path d="M265.756 68L265.37 67.6825C265.325 67.737 265.292 67.8004 265.273 67.8684C263.778 73.3531 262.663 76.7463 260.811 81.8288C258.66 87.7305 257.569 92.2457 256.84 95.9487C256.567 97.3352 256.347 98.5951 256.142 99.7657C255.796 101.744 255.495 103.467 255.059 105.116C253.698 110.14 252.589 114.97 251.732 119.604C250.359 119.304 248.86 119.275 247.242 119.507C243.96 119.977 240.986 121.109 238.327 122.904C235.68 124.691 233.486 126.899 231.749 129.526C230.014 132.15 228.768 135.096 228.009 138.359C227.235 141.548 227.089 144.822 227.57 148.176C227.91 150.545 228.809 152.434 230.301 153.795C231.805 155.167 233.622 155.701 235.706 155.403C235.752 155.396 235.796 155.383 235.839 155.364C238.757 154.059 241.564 151.845 244.263 148.752L244.263 148.752L244.268 148.746C246.17 146.496 247.698 144.058 248.851 141.434C248.838 141.644 248.826 141.852 248.815 142.058C248.742 143.376 248.724 144.771 248.762 146.243L248.762 146.243L248.762 146.252C248.839 148.058 249.383 149.638 250.406 150.97C251.493 152.386 253.096 152.91 255.092 152.624C256.033 152.489 256.996 152.064 257.977 151.385C259.036 150.699 259.989 149.894 260.836 148.971L260.839 148.968C261.748 147.96 262.525 146.925 263.168 145.861C263.894 144.788 264.422 143.773 264.741 142.816C264.752 142.781 264.76 142.745 264.764 142.709C264.791 142.444 264.746 142.171 264.582 141.934C264.428 141.711 264.203 141.572 263.964 141.488C263.78 141.404 263.566 141.348 263.34 141.38C263.085 141.417 262.884 141.556 262.744 141.743C262.717 141.779 262.695 141.818 262.679 141.859C262.188 143.098 261.593 144.13 260.897 144.964C260.222 145.772 259.494 146.199 258.712 146.311C258.374 146.359 258.095 146.287 257.843 146.098C257.577 145.899 257.312 145.546 257.072 144.985C256.58 143.777 256.394 142.251 256.545 140.385C256.546 140.379 256.546 140.373 256.547 140.367C257.167 126.673 258.349 114.802 260.089 104.751C261.8 95.1784 263.151 88.6208 264.672 81.2369C264.765 80.7866 264.858 80.3332 264.952 79.8758C264.957 79.8602 264.963 79.8382 264.972 79.8092C264.988 79.7499 265.013 79.6614 265.044 79.5391C265.106 79.2945 265.196 78.9142 265.309 78.3614C265.537 77.2562 265.861 75.4589 266.251 72.6749C266.447 71.2791 266.546 70.2818 266.583 69.57C266.62 68.8681 266.599 68.412 266.537 68.1168C266.506 67.972 266.456 67.8184 266.36 67.6915C266.248 67.5436 266.069 67.432 265.849 67.4391C265.668 67.445 265.54 67.5307 265.485 67.5723C265.452 67.5972 265.427 67.6212 265.409 67.6393C265.399 67.6487 265.392 67.6571 265.385 67.6643L265.376 67.6743L265.373 67.6786L265.371 67.6806L265.37 67.6815C265.37 67.682 265.37 67.6825 265.756 68ZM249.986 129.241C249.982 129.255 249.978 129.269 249.976 129.283C249.487 131.827 248.814 134.268 247.957 136.606C247.087 138.861 246.105 140.915 245.013 142.769C243.908 144.541 242.809 146.006 241.718 147.169C240.616 148.247 239.682 148.78 238.91 148.89C237.969 149.025 237.18 148.782 236.5 148.153C235.861 147.398 235.438 146.402 235.256 145.135C234.827 142.138 234.809 139.348 235.197 136.761C235.671 134.146 236.399 131.847 237.375 129.857C238.349 127.873 239.579 126.285 241.059 125.081C241.064 125.077 241.069 125.074 241.073 125.07C242.542 123.784 244.108 123.035 245.774 122.797C246.883 122.638 247.89 122.735 248.805 123.076C248.821 123.082 248.838 123.088 248.854 123.092C249.747 123.322 250.387 123.812 250.805 124.576C250.746 125.303 250.656 126.073 250.533 126.888C250.392 127.665 250.21 128.45 249.986 129.241Z" fill="white" stroke="white" stroke-linejoin="round"/>
</svg>
